<?xml version="1.0" encoding="UTF-8"?>
<svg id="Layer_1" data-name="Layer 1" xmlns="http://www.w3.org/2000/svg" xmlns:xlink="http://www.w3.org/1999/xlink" viewBox="0 0 20.59 24.7">
  <defs>
    <style>
      .cls-1 {
        fill: #231f20;
        stroke: #231f20;
        stroke-width: .25px;
      }

      .cls-1, .cls-2 {
        stroke-miterlimit: 10;
      }

      .cls-3, .cls-2 {
        fill: none;
      }

      .cls-2 {
        stroke: #fff;
        stroke-width: .75px;
      }

      .cls-4 {
        fill: url(#linear-gradient);
      }

      .cls-5 {
        clip-path: url(#clippath);
      }
    </style>
    <clipPath id="clippath">
      <polygon class="cls-3" points=".37 .37 .37 24.2 10.2 21.33 20.22 24.2 20.22 .37 .37 .37"/>
    </clipPath>
    <linearGradient id="linear-gradient" x1="-184.83" y1="848.32" x2="-183.83" y2="848.32" gradientTransform="translate(20220.79 -4379.33) rotate(-90) scale(23.82 -23.82)" gradientUnits="userSpaceOnUse">
      <stop offset="0" stop-color="#fd0"/>
      <stop offset="1" stop-color="#cf9810"/>
    </linearGradient>
  </defs>
  <g class="cls-5">
    <rect class="cls-4" x=".37" y=".37" width="19.84" height="23.82"/>
  </g>
  <polygon class="cls-2" points="20.22 24.2 10.2 21.33 .38 24.2 .38 .38 20.22 .38 20.22 24.2"/>
  <path class="cls-1" d="M12.55,11.57c0-.49-.22-.9-.66-1.24-.44-.33-1-.5-1.67-.5-.02,0-.05,0-.09,0-.04,0-.07,0-.09,0,.49-.71.9-1.3,1.22-1.76.8-1.18,1.2-1.83,1.2-1.94,0-.09-.05-.18-.14-.27-.09-.09-.2-.13-.32-.13h-3.67v.8h2.79c-.54.79-.99,1.44-1.35,1.95-.87,1.28-1.3,1.99-1.3,2.12,0,.1.05.19.14.28.09.09.21.14.33.14.09,0,.26-.06.51-.18.24-.12.5-.18.77-.18.4,0,.73.11,1,.33.23.19.35.39.35.6v3.51c0,.21-.12.4-.35.59-.27.22-.6.33-1,.33s-.73-.11-1-.33c-.23-.19-.35-.38-.35-.59v-.66h-.97v.66c0,.49.22.91.66,1.24.44.33.99.5,1.66.5s1.23-.17,1.67-.5c.45-.33.67-.75.67-1.24v-3.51Z"/>
</svg>