<?xml version="1.0" encoding="UTF-8"?>
<svg id="Layer_1" data-name="Layer 1" xmlns="http://www.w3.org/2000/svg" xmlns:xlink="http://www.w3.org/1999/xlink" viewBox="0 0 17.58 27.68">
  <defs>
    <style>
      .cls-1 {
        fill: #fff;
      }

      .cls-2 {
        stroke-width: .5px;
      }

      .cls-2, .cls-3, .cls-4, .cls-5 {
        fill: none;
      }

      .cls-2, .cls-4, .cls-5 {
        stroke: #fff;
        stroke-miterlimit: 10;
      }

      .cls-4 {
        stroke-width: .75px;
      }

      .cls-6 {
        fill: url(#linear-gradient);
      }

      .cls-7 {
        clip-path: url(#clippath);
      }

      .cls-5 {
        stroke-width: .25px;
      }
    </style>
    <clipPath id="clippath">
      <path class="cls-3" d="M1.93.37C1.07.37.37,1.07.37,1.94v23.8c0,.87.7,1.57,1.56,1.57h13.72c.86,0,1.55-.7,1.55-1.57V1.94c0-.86-.7-1.56-1.55-1.56H1.93Z"/>
    </clipPath>
    <linearGradient id="linear-gradient" x1="-339.92" y1="642.8" x2="-338.92" y2="642.8" gradientTransform="translate(5721.97 10833.47) scale(16.83 -16.83)" gradientUnits="userSpaceOnUse">
      <stop offset="0" stop-color="#70be44"/>
      <stop offset="1" stop-color="#0a6b37"/>
    </linearGradient>
  </defs>
  <g class="cls-7">
    <rect class="cls-6" x=".37" y=".37" width="16.83" height="26.93"/>
  </g>
  <g>
    <path class="cls-4" d="M17.21,25.74c0,.87-.7,1.57-1.56,1.57H1.93c-.86,0-1.56-.7-1.56-1.57V1.94C.38,1.07,1.07.38,1.93.38h13.72c.86,0,1.56.7,1.56,1.56v23.8Z"/>
    <polygon class="cls-1" points="14.66 14.4 11.88 14.4 11.88 17.23 11.2 17.23 11.2 14.4 8.41 14.4 8.41 13.74 11.2 13.74 11.2 10.91 11.88 10.91 11.88 13.74 14.66 13.74 14.66 14.4"/>
    <polygon class="cls-2" points="14.66 14.4 11.88 14.4 11.88 17.23 11.2 17.23 11.2 14.4 8.41 14.4 8.41 13.74 11.2 13.74 11.2 10.91 11.88 10.91 11.88 13.74 14.66 13.74 14.66 14.4"/>
    <path class="cls-1" d="M7.02,17.16c0,.47-.19.86-.56,1.18-.38.31-.84.47-1.4.47s-1.02-.16-1.39-.47-.56-.7-.56-1.18v-6.78c0-.47.19-.86.56-1.18s.83-.47,1.39-.47,1.02.16,1.4.47.56.71.56,1.18v.71h-1.04v-.71c0-.14-.08-.28-.23-.42-.19-.17-.42-.26-.69-.26s-.5.09-.68.26c-.15.14-.23.28-.23.42v1.67c.29-.13.6-.2.91-.2.56,0,1.02.16,1.4.48.38.32.56.71.56,1.18v3.65ZM5.98,17.16v-3.65c0-.14-.08-.28-.23-.42-.19-.17-.42-.25-.69-.25s-.5.08-.68.25c-.15.14-.23.28-.23.42v3.65c0,.14.08.28.23.42.18.16.41.25.68.25s.5-.09.69-.25c.15-.14.23-.28.23-.42"/>
    <path class="cls-5" d="M7.02,17.16c0,.47-.19.86-.56,1.18-.38.31-.84.47-1.4.47s-1.02-.16-1.39-.47-.56-.7-.56-1.18v-6.78c0-.47.19-.86.56-1.18s.83-.47,1.39-.47,1.02.16,1.4.47.56.71.56,1.18v.71h-1.04v-.71c0-.14-.08-.28-.23-.42-.19-.17-.42-.26-.69-.26s-.5.09-.68.26c-.15.14-.23.28-.23.42v1.67c.29-.13.6-.2.91-.2.56,0,1.02.16,1.4.48.38.32.56.71.56,1.18v3.65ZM5.98,17.16v-3.65c0-.14-.08-.28-.23-.42-.19-.17-.42-.25-.69-.25s-.5.08-.68.25c-.15.14-.23.28-.23.42v3.65c0,.14.08.28.23.42.18.16.41.25.68.25s.5-.09.69-.25c.15-.14.23-.28.23-.42Z"/>
  </g>
</svg>