<?xml version="1.0" encoding="UTF-8"?>
<svg id="Layer_1" data-name="Layer 1" xmlns="http://www.w3.org/2000/svg" xmlns:xlink="http://www.w3.org/1999/xlink" viewBox="0 0 17.58 27.68">
  <defs>
    <style>
      .cls-1 {
        fill: #fff;
      }

      .cls-2 {
        stroke-width: .5px;
      }

      .cls-2, .cls-3, .cls-4, .cls-5 {
        fill: none;
      }

      .cls-2, .cls-4, .cls-5 {
        stroke: #fff;
        stroke-miterlimit: 10;
      }

      .cls-4 {
        stroke-width: .75px;
      }

      .cls-6 {
        fill: url(#linear-gradient);
      }

      .cls-7 {
        clip-path: url(#clippath);
      }

      .cls-5 {
        stroke-width: .25px;
      }
    </style>
    <clipPath id="clippath">
      <path class="cls-3" d="M1.93.38C1.07.38.37,1.07.37,1.94v23.8c0,.87.7,1.57,1.56,1.57h13.72c.86,0,1.56-.7,1.56-1.57V1.94c0-.86-.7-1.56-1.56-1.56H1.93Z"/>
    </clipPath>
    <linearGradient id="linear-gradient" x1="-249.91" y1="641.41" x2="-248.91" y2="641.41" gradientTransform="translate(-4189.35 -10782.33) rotate(-180) scale(16.83 -16.83)" gradientUnits="userSpaceOnUse">
      <stop offset="0" stop-color="#674026"/>
      <stop offset="1" stop-color="#d5a65c"/>
    </linearGradient>
  </defs>
  <g class="cls-7">
    <rect class="cls-6" x=".37" y=".38" width="16.83" height="26.93"/>
  </g>
  <g>
    <path class="cls-4" d="M17.21,25.74c0,.87-.7,1.57-1.56,1.57H1.93c-.86,0-1.56-.7-1.56-1.57V1.94C.38,1.07,1.07.38,1.93.38h13.72c.86,0,1.56.7,1.56,1.56v23.8Z"/>
    <path class="cls-1" d="M7.12,17.21c0,.44-.2.81-.6,1.1-.4.29-.89.44-1.49.44s-1.09-.15-1.48-.44c-.39-.3-.59-.66-.59-1.1v-.59h.86v.59c0,.18.1.36.31.53.24.19.54.29.89.29s.65-.1.9-.29c.21-.17.31-.34.31-.53v-3.11c0-.19-.1-.37-.31-.53-.24-.19-.54-.29-.9-.29-.23,0-.46.05-.68.16-.22.11-.37.16-.46.16-.12,0-.21-.04-.3-.12-.08-.08-.12-.16-.12-.24v-3.96c0-.08.04-.16.12-.24.08-.08.18-.12.3-.12h3.23v.71h-2.81v3.02c.18-.05.42-.08.72-.08.6,0,1.1.15,1.49.44.4.3.59.66.59,1.09v3.11Z"/>
    <path class="cls-5" d="M7.12,17.21c0,.44-.2.81-.6,1.1-.4.29-.89.44-1.49.44s-1.09-.15-1.48-.44c-.39-.3-.59-.66-.59-1.1v-.59h.86v.59c0,.18.1.36.31.53.24.19.54.29.89.29s.65-.1.9-.29c.21-.17.31-.34.31-.53v-3.11c0-.19-.1-.37-.31-.53-.24-.19-.54-.29-.9-.29-.23,0-.46.05-.68.16-.22.11-.37.16-.46.16-.12,0-.21-.04-.3-.12-.08-.08-.12-.16-.12-.24v-3.96c0-.08.04-.16.12-.24.08-.08.18-.12.3-.12h3.23v.71h-2.81v3.02c.18-.05.42-.08.72-.08.6,0,1.1.15,1.49.44.4.3.59.66.59,1.09v3.11Z"/>
    <polygon class="cls-1" points="14.66 14.4 11.88 14.4 11.88 17.23 11.2 17.23 11.2 14.4 8.41 14.4 8.41 13.74 11.2 13.74 11.2 10.91 11.88 10.91 11.88 13.74 14.66 13.74 14.66 14.4"/>
    <polygon class="cls-2" points="14.66 14.4 11.88 14.4 11.88 17.23 11.2 17.23 11.2 14.4 8.41 14.4 8.41 13.74 11.2 13.74 11.2 10.91 11.88 10.91 11.88 13.74 14.66 13.74 14.66 14.4"/>
  </g>
</svg>