<?xml version="1.0" encoding="UTF-8"?>
<svg id="Layer_1" data-name="Layer 1" xmlns="http://www.w3.org/2000/svg" xmlns:xlink="http://www.w3.org/1999/xlink" viewBox="0 0 17.58 27.68">
  <defs>
    <style>
      .cls-1 {
        fill: #fff;
      }

      .cls-2 {
        stroke-width: .5px;
      }

      .cls-2, .cls-3, .cls-4 {
        fill: none;
      }

      .cls-2, .cls-4 {
        stroke: #fff;
        stroke-miterlimit: 10;
      }

      .cls-4 {
        stroke-width: .75px;
      }

      .cls-5 {
        fill: url(#linear-gradient);
      }

      .cls-6 {
        clip-path: url(#clippath);
      }
    </style>
    <clipPath id="clippath">
      <path class="cls-3" d="M1.93.38C1.07.38.38,1.08.38,1.94v23.8c0,.86.7,1.56,1.55,1.56h13.72c.86,0,1.56-.7,1.56-1.56V1.94c0-.87-.7-1.57-1.56-1.57H1.93Z"/>
    </clipPath>
    <linearGradient id="linear-gradient" x1="-154.13" y1="641.41" x2="-153.13" y2="641.41" gradientTransform="translate(-2577.12 -10782.32) rotate(-180) scale(16.83 -16.83)" gradientUnits="userSpaceOnUse">
      <stop offset="0" stop-color="#674026"/>
      <stop offset="1" stop-color="#d5a65c"/>
    </linearGradient>
  </defs>
  <g class="cls-6">
    <rect class="cls-5" x=".38" y=".38" width="16.83" height="26.93"/>
  </g>
  <path class="cls-4" d="M.38,1.94C.38,1.08,1.07.38,1.93.38h13.72c.86,0,1.56.7,1.56,1.57v23.8c0,.86-.7,1.56-1.56,1.56H1.93c-.86,0-1.55-.7-1.55-1.56V1.94Z"/>
  <g>
    <path class="cls-1" d="M7.2,17.22c0,.44-.2.81-.59,1.1-.4.3-.89.45-1.48.45s-1.09-.15-1.48-.45c-.39-.3-.59-.67-.59-1.1v-.59h.86v.59c0,.18.1.36.31.52.24.2.54.3.89.3s.65-.1.89-.3c.21-.17.31-.34.31-.52v-3.12c0-.19-.1-.36-.31-.53-.24-.19-.54-.29-.89-.29-.24,0-.47.05-.68.17-.22.11-.37.16-.45.16-.11,0-.21-.04-.3-.12-.08-.08-.12-.17-.12-.25,0-.12.39-.74,1.16-1.88.32-.46.72-1.04,1.2-1.74h-2.48v-.71h3.27c.11,0,.21.04.29.12.08.08.12.16.12.24,0,.1-.36.68-1.07,1.73-.29.41-.65.93-1.09,1.56.01,0,.04,0,.08,0,.04,0,.06,0,.08,0,.6,0,1.1.15,1.49.44.39.29.59.66.59,1.1v3.12Z"/>
    <path class="cls-1" d="M5.12,18.89c-.62,0-1.14-.16-1.55-.47-.42-.32-.63-.73-.63-1.2v-.71h1.11v.71c0,.14.09.28.27.43.22.18.48.27.81.27s.59-.09.81-.27c.18-.14.27-.28.27-.43v-3.12c0-.15-.09-.29-.27-.43-.22-.17-.49-.26-.81-.26-.22,0-.43.05-.63.15-.32.16-.44.18-.51.18-.15,0-.28-.05-.39-.16-.11-.11-.16-.22-.16-.34,0-.07,0-.21,1.18-1.95.29-.42.64-.93,1.06-1.54h-2.36v-.96h3.39c.14,0,.27.05.38.15.11.1.16.22.16.33,0,.07,0,.19-1.09,1.8l-.96,1.38c.59.01,1.09.17,1.49.47.43.32.64.72.64,1.2v3.12c0,.48-.22.88-.64,1.2-.42.31-.94.47-1.56.47M3.18,16.76v.46c0,.4.18.73.54,1,.37.28.84.42,1.4.42s1.04-.14,1.41-.42c.37-.27.54-.6.54-1v-3.12c0-.4-.18-.73-.54-1-.37-.28-.85-.42-1.41-.42-.02,0-.05,0-.09,0-.03,0-.05,0-.07,0h-.24l1.22-1.76c.91-1.34,1.04-1.61,1.05-1.66,0-.04-.03-.09-.09-.14-.06-.06-.13-.08-.2-.08h-3.14v.46h2.59l-.13.2c-.48.7-.88,1.28-1.2,1.73-.99,1.47-1.12,1.76-1.13,1.82,0,.04.03.09.09.15.06.06.13.09.21.09.03,0,.12-.02.39-.15.23-.12.48-.18.74-.18.38,0,.71.11.97.32.24.19.36.4.36.63v3.12c0,.22-.12.43-.36.62-.26.22-.59.32-.97.32s-.71-.11-.97-.32c-.24-.19-.36-.4-.36-.62v-.46h-.61Z"/>
    <polygon class="cls-1" points="14.64 14.4 11.86 14.4 11.86 17.23 11.18 17.23 11.18 14.4 8.39 14.4 8.39 13.74 11.18 13.74 11.18 10.91 11.86 10.91 11.86 13.74 14.64 13.74 14.64 14.4"/>
    <polygon class="cls-2" points="14.64 14.4 11.86 14.4 11.86 17.23 11.18 17.23 11.18 14.4 8.39 14.4 8.39 13.74 11.18 13.74 11.18 10.91 11.86 10.91 11.86 13.74 14.64 13.74 14.64 14.4"/>
  </g>
</svg>