<?xml version="1.0" encoding="UTF-8"?>
<svg id="Layer_1" data-name="Layer 1" xmlns="http://www.w3.org/2000/svg" xmlns:xlink="http://www.w3.org/1999/xlink" viewBox="0 0 17.39 18.91">
  <defs>
    <style>
      .cls-1 {
        clip-path: url(#clippath-4);
      }

      .cls-2 {
        fill: url(#linear-gradient-2);
      }

      .cls-3 {
        fill: #fff;
      }

      .cls-4 {
        fill: none;
      }

      .cls-5 {
        fill: url(#linear-gradient-4);
      }

      .cls-6 {
        fill: url(#linear-gradient-3);
      }

      .cls-7 {
        clip-path: url(#clippath-1);
      }

      .cls-8 {
        fill: url(#linear-gradient-5);
      }

      .cls-9 {
        clip-path: url(#clippath-3);
      }

      .cls-10 {
        clip-path: url(#clippath-2);
      }

      .cls-11 {
        fill: url(#linear-gradient);
      }

      .cls-12 {
        clip-path: url(#clippath);
      }
    </style>
    <clipPath id="clippath">
      <path class="cls-4" d="M2.51,3.25c-.41,0-1.1.19-1.1,1.35,0,.84.38,1.28,1.13,1.3.24,0,.47,0,.71,0h1.66s1.01,0,1.24,0c.76-.01,1.16-.43,1.19-1.24.02-.45-.1-.83-.34-1.08-.2-.21-.48-.33-.81-.33-.62-.01-1.23-.02-1.85-.02s-1.23,0-1.84.02"/>
    </clipPath>
    <linearGradient id="linear-gradient" x1="-34.44" y1="388.93" x2="-33.44" y2="388.93" gradientTransform="translate(205.97 2315) scale(5.94 -5.94)" gradientUnits="userSpaceOnUse">
      <stop offset="0" stop-color="#da2128"/>
      <stop offset="1" stop-color="#900d10"/>
    </linearGradient>
    <clipPath id="clippath-1">
      <path class="cls-4" d="M2.6,6.15c-.34,0-.68,0-1.02,0-.8,0-1.19.43-1.2,1.3,0,.48.1.83.33,1.06.2.2.48.3.83.31.84,0,1.69,0,2.53,0s1.69,0,2.53,0c.36,0,1.19-.14,1.18-1.36,0-1.08-.66-1.31-1.21-1.32-.34,0-.68,0-1.02,0h-2.96Z"/>
    </clipPath>
    <linearGradient id="linear-gradient-2" x1="-34.44" y1="388.93" x2="-33.44" y2="388.93" gradientTransform="translate(255.59 2889.99) scale(7.41 -7.41)" gradientUnits="userSpaceOnUse">
      <stop offset="0" stop-color="#da2128"/>
      <stop offset="1" stop-color="#900d10"/>
    </linearGradient>
    <clipPath id="clippath-2">
      <path class="cls-4" d="M4.46,9.1s-1.01,0-1.25,0c-1,.02-1.15.65-1.16,1.26,0,.52.1.87.33,1.11.19.2.45.3.79.3.61,0,1.21.01,1.82.01s1.25,0,1.87-.01c.7-.01,1.11-.52,1.11-1.35,0-1.11-.71-1.3-1.13-1.31-.25,0-.5,0-.74,0h-1.64Z"/>
    </clipPath>
    <linearGradient id="linear-gradient-3" x1="-34.44" y1="388.93" x2="-33.44" y2="388.93" gradientTransform="translate(205.76 2311.19) scale(5.92 -5.92)" gradientUnits="userSpaceOnUse">
      <stop offset="0" stop-color="#da2128"/>
      <stop offset="1" stop-color="#900d10"/>
    </linearGradient>
    <clipPath id="clippath-3">
      <path class="cls-4" d="M7.28.5l-.29.05-.15,2.31.14.12c.92.82,1.04,1.36.59,2.62l-.07.19.9,1.22.92-.36c.47-.18.91-.36,1.36-.52.06-.02.12-.04.2-.04.02,0,.05,0,.07,0l.03.11s-.08.06-.34.11c-1.02.2-1.79.7-2.28,1.5-.45.73-.65,1.5-.6,2.31.06.94-.31,1.57-1.14,1.91-.14.06-.35.15-.5.31-.84.93-1.78,2.04-2.24,3.42-.19.57-.13,1.24-.05,1.81.06.4.48.78.84.91l.08.02h.06c.44,0,.87-.71.87-.71.61-1.11,1.2-1.79,1.96-2.29.69-.45,1.33-.97,1.97-1.47l.34-.27c1-.8,1.99-1.6,2.97-2.42.37-.31.73-.44,1.17-.44h.12c.32.02.64.03.97.03h1.84V3.48h-1.87c-.32,0-.64,0-1.03,0-.35,0-.54-.11-.75-.43-1.17-1.78-2.77-2.68-4.75-2.68-.43,0-.88.04-1.34.13"/>
    </clipPath>
    <linearGradient id="linear-gradient-4" x1="-34.44" y1="388.93" x2="-33.44" y2="388.93" gradientTransform="translate(460.37 5166.71) scale(13.26 -13.26)" gradientUnits="userSpaceOnUse">
      <stop offset="0" stop-color="#da2128"/>
      <stop offset="1" stop-color="#900d10"/>
    </linearGradient>
    <clipPath id="clippath-4">
      <path class="cls-4" d="M3.52,1.23c-.15.5-.1.95.14,1.29.25.34.68.53,1.21.54h.85s.45,0,.45,0c.14,0,.29,0,.43-.02.64-.07,1.07-.65,1.04-1.42-.04-.99-.63-1.21-1.12-1.23-.18,0-.36,0-.54,0h-.86c-.17,0-.33,0-.54,0-.37,0-.85.15-1.06.84"/>
    </clipPath>
    <linearGradient id="linear-gradient-5" x1="-34.44" y1="388.93" x2="-33.44" y2="388.93" gradientTransform="translate(148.48 1639.89) scale(4.21 -4.21)" gradientUnits="userSpaceOnUse">
      <stop offset="0" stop-color="#da2128"/>
      <stop offset="1" stop-color="#900d10"/>
    </linearGradient>
  </defs>
  <g class="cls-12">
    <rect class="cls-11" x="1.41" y="3.23" width="5.96" height="2.68"/>
  </g>
  <path class="cls-3" d="M4.34,3.6c.62,0,1.23,0,1.85.02.52,0,.8.41.78,1.03-.02.61-.26.87-.82.88-.23,0-.47,0-.7,0-.35,0-.71,0-1.06,0-.37,0-.75,0-1.12,0-.24,0-.48,0-.72,0-.55-.01-.76-.29-.76-.92s.22-.97.73-.98c.61-.01,1.22-.02,1.83-.02M4.34,2.85c-.61,0-1.23,0-1.84.02-.35,0-1.47.15-1.47,1.73,0,1.48,1.05,1.66,1.49,1.67.25,0,.49,0,.74,0h.56s.56,0,.56,0h.52s.53,0,.53,0c.24,0,.48,0,.72,0,.56,0,1.51-.23,1.56-1.6.03-.7-.23-1.12-.44-1.35-.28-.29-.65-.45-1.07-.45-.62-.01-1.24-.02-1.86-.02"/>
  <g class="cls-7">
    <rect class="cls-2" x=".37" y="6.15" width="7.42" height="2.69"/>
  </g>
  <path class="cls-3" d="M5.57,6.53c.34,0,.67,0,1.01,0,.58,0,.83.3.83.94,0,.64-.25.97-.81.98-.85,0-1.69,0-2.53,0s-1.69,0-2.53,0c-.56,0-.79-.32-.78-.99,0-.67.23-.93.83-.93.33,0,.66,0,.99,0,.5,0,1.01,0,1.51,0s.99,0,1.49,0M5.57,5.78h-.75s-.74,0-.74,0h-.75s-.76,0-.76,0c-.33,0-.67,0-1,0C.87,5.79.02,6.09,0,7.46c0,.59.14,1.02.44,1.33.27.28.64.42,1.09.42.85,0,1.69,0,2.54,0s1.69,0,2.54,0c.76,0,1.56-.46,1.56-1.73,0-1.5-1.1-1.68-1.58-1.69-.34,0-.68,0-1.02,0"/>
  <g class="cls-10">
    <rect class="cls-6" x="2.05" y="9.1" width="5.93" height="2.69"/>
  </g>
  <path class="cls-3" d="M6.11,9.47c.24,0,.48,0,.72,0,.53.01.76.32.77.94,0,.61-.24.97-.74.98-.61,0-1.23.01-1.84.01s-1.23,0-1.84-.01c-.54,0-.76-.34-.75-1.03.01-.66.2-.88.79-.89.23,0,.46,0,.68,0,.36,0,.72,0,1.08,0h.06c.35,0,.71,0,1.06,0M6.11,8.72h-.53s-.52,0-.52,0h-.6s-.54,0-.54,0c-.23,0-.47,0-.7,0-.99.02-1.51.57-1.53,1.63,0,.61.13,1.07.43,1.38.26.27.62.41,1.05.42.62,0,1.23.01,1.85.01s1.23,0,1.85-.01c.69-.01,1.49-.47,1.48-1.73,0-1.52-1.15-1.67-1.49-1.68-.25,0-.49,0-.74,0"/>
  <g class="cls-9">
    <rect class="cls-5" x="3.69" y=".38" width="13.32" height="18.16"/>
  </g>
  <path class="cls-3" d="M8.61.75c1.81,0,3.32.81,4.44,2.51.28.43.59.6,1.06.6.03,0,.05,0,.08,0,.32-.01.64-.02.96-.02.48,0,.97,0,1.48,0v6.71c-.49,0-.98.01-1.46.01-.32,0-.64,0-.96-.02-.05,0-.09,0-.13,0-.54,0-.99.18-1.41.53-.98.82-1.97,1.62-2.96,2.41-.75.59-1.49,1.2-2.28,1.72-.94.62-1.55,1.47-2.08,2.42-.12.21-.41.52-.54.52,0,0-.01,0-.02,0-.25-.09-.56-.37-.59-.61-.08-.54-.13-1.14.03-1.64.42-1.27,1.27-2.3,2.16-3.29.09-.1.24-.17.37-.22,1.01-.43,1.43-1.22,1.36-2.28-.05-.77.15-1.45.54-2.09.47-.76,1.18-1.16,2.03-1.33.37-.07.72-.18.62-.62-.06-.26-.24-.36-.45-.36-.11,0-.22.02-.33.07-.66.24-1.3.5-2.02.78-.16-.21-.38-.52-.61-.83.51-1.42.35-2.1-.69-3.03.04-.63.08-1.23.12-1.84.44-.08.86-.12,1.27-.12M8.61,0c-.45,0-.92.05-1.41.14l-.57.11-.04.58v.21s-.12,1.63-.12,1.63l-.03.36.27.24c.76.68.91,1.03.49,2.22l-.14.38.24.32.61.83.28.38c-.06.08-.11.16-.17.25-.49.8-.71,1.65-.65,2.53.05.78-.23,1.26-.91,1.54-.16.07-.43.18-.63.41-.87.96-1.84,2.1-2.32,3.55-.22.65-.15,1.37-.07,1.98.08.57.62,1.04,1.08,1.21l.12.04h.15c.68,0,1.18-.86,1.2-.9.58-1.05,1.13-1.7,1.84-2.16.7-.46,1.36-.99,2-1.49l.33-.27c.96-.76,1.96-1.58,2.98-2.43.3-.25.58-.36.93-.36.03,0,.06,0,.1,0,.33.02.66.02.99.02.24,0,.49,0,.73,0,.24,0,.48,0,.73,0h.75V3.1h-.75c-.25,0-.5,0-.75,0-.24,0-.49,0-.73,0-.33,0-.66,0-.99.02h-.05c-.2,0-.28-.02-.44-.26-1.24-1.89-2.95-2.85-5.07-2.85"/>
  <g class="cls-1">
    <rect class="cls-8" x="3.37" y=".38" width="4.31" height="2.67"/>
  </g>
  <path class="cls-3" d="M4.58.76h.03c.17,0,.34,0,.5,0,.29,0,.58,0,.87,0,.18,0,.36,0,.53,0,.51.02.73.29.76.87.02.55-.25.98-.71,1.03-.13.01-.26.02-.39.02-.21,0-.43-.01-.64-.01h0c-.13,0-.26,0-.4,0-.09,0-.18,0-.26,0-.84,0-1.24-.55-1-1.34.11-.35.3-.58.7-.58M4.58,0C4.26,0,3.47.11,3.16,1.12c-.19.61-.12,1.19.2,1.62.32.44.85.68,1.51.69h.27s.2,0,.2,0h.2s.34,0,.34,0c.1,0,.2,0,.3,0,.16,0,.31,0,.47-.02.85-.1,1.41-.84,1.38-1.8C7.97.21,6.97.03,6.54.02c-.19,0-.37,0-.56,0h-.44s-.43,0-.43,0c-.16,0-.32,0-.48,0h-.01s-.04,0-.04,0Z"/>
</svg>