<?xml version="1.0" encoding="UTF-8"?>
<svg id="Layer_1" data-name="Layer 1" xmlns="http://www.w3.org/2000/svg" xmlns:xlink="http://www.w3.org/1999/xlink" viewBox="0 0 21.46 22.29">
  <defs>
    <style>
      .cls-1 {
        fill: url(#linear-gradient-2);
      }

      .cls-2 {
        fill: none;
      }

      .cls-3 {
        fill: url(#linear-gradient-4);
      }

      .cls-4 {
        fill: url(#linear-gradient-3);
      }

      .cls-5 {
        clip-path: url(#clippath-1);
      }

      .cls-6 {
        clip-path: url(#clippath-3);
      }

      .cls-7 {
        clip-path: url(#clippath-2);
      }

      .cls-8 {
        fill: url(#linear-gradient);
      }

      .cls-9 {
        clip-path: url(#clippath);
      }
    </style>
    <clipPath id="clippath">
      <path class="cls-2" d="M9.24.23L1.22,3.49c-.72.29-1.22,1.16-1.11,1.93l1.27,8.74c.11.77.71,1.79,1.33,2.26l7.1,5.39c.62.47,1.61.44,2.2-.07l6.42-5.58c.59-.51,1.19-1.56,1.33-2.33l1.57-8.56c.14-.77-.34-1.62-1.07-1.9L11.88.2c-.35-.13-.81-.2-1.27-.2-.5,0-1,.08-1.37.23"/>
    </clipPath>
    <linearGradient id="linear-gradient" x1="-48.34" y1="487.98" x2="-47.34" y2="487.98" gradientTransform="translate(1027.1 10377.73) scale(21.24 -21.24)" gradientUnits="userSpaceOnUse">
      <stop offset="0" stop-color="#e6e7e8"/>
      <stop offset="1" stop-color="#c4c5c7"/>
    </linearGradient>
    <clipPath id="clippath-1">
      <path class="cls-2" d="M.11,5.42l1.27,8.74c.11.77.71,1.79,1.33,2.26l7.1,5.39c.62.47,1.13.22,1.13-.56v-10.64c0-.78-.58-1.69-1.28-2.02L1.19,4.62c-.18-.08-.34-.12-.49-.12-.43,0-.68.35-.59.92"/>
    </clipPath>
    <linearGradient id="linear-gradient-2" x1="-48.34" y1="487.99" x2="-47.34" y2="487.99" gradientTransform="translate(8571.38 -826.55) rotate(-90) scale(17.55 -17.55)" gradientUnits="userSpaceOnUse">
      <stop offset="0" stop-color="#e6e7e8"/>
      <stop offset="1" stop-color="#c4c5c7"/>
    </linearGradient>
    <clipPath id="clippath-2">
      <path class="cls-2" d="M20.3,4.51l-8.1,4.05c-.7.35-1.27,1.27-1.27,2.05v10.64c0,.78.48,1,1.07.49l6.42-5.58c.59-.51,1.19-1.56,1.33-2.33l1.57-8.56c.1-.56-.12-.9-.51-.9-.15,0-.31.04-.5.14"/>
    </clipPath>
    <linearGradient id="linear-gradient-3" x1="-48.34" y1="487.98" x2="-47.34" y2="487.98" gradientTransform="translate(513.87 5089.83) scale(10.4 -10.4)" gradientUnits="userSpaceOnUse">
      <stop offset="0" stop-color="#e6e7e8"/>
      <stop offset="1" stop-color="#c4c5c7"/>
    </linearGradient>
    <clipPath id="clippath-3">
      <path class="cls-2" d="M9.44.23L1.42,3.49c-.72.29-.74.81-.03,1.15l8.24,3.96c.7.34,1.85.33,2.55-.01l8.32-4.07c.7-.34.68-.85-.05-1.13L12.08.2c-.35-.13-.81-.2-1.27-.2-.5,0-.99.08-1.37.23"/>
    </clipPath>
    <linearGradient id="linear-gradient-4" x1="-48.34" y1="487.99" x2="-47.34" y2="487.99" gradientTransform="translate(4323.56 -418.41) rotate(-90) scale(8.84 -8.84)" gradientUnits="userSpaceOnUse">
      <stop offset="0" stop-color="#e6e7e8"/>
      <stop offset="1" stop-color="#c4c5c7"/>
    </linearGradient>
  </defs>
  <g class="cls-9">
    <rect class="cls-8" y="0" width="21.46" height="22.29"/>
  </g>
  <g class="cls-5">
    <rect class="cls-1" x=".03" y="4.5" width="10.91" height="17.79"/>
  </g>
  <g class="cls-7">
    <rect class="cls-4" x="10.94" y="4.38" width="10.48" height="17.88"/>
  </g>
  <g class="cls-6">
    <rect class="cls-3" x=".68" y="0" width="20.51" height="8.92"/>
  </g>
</svg>