<?xml version="1.0" encoding="UTF-8"?>
<svg xmlns="http://www.w3.org/2000/svg" xmlns:xlink="http://www.w3.org/1999/xlink" viewBox="0 0 43.86 30.94">
  <defs>
    <style>
      .cls-1 {
        clip-path: url(#clippath-6);
      }

      .cls-2 {
        clip-path: url(#clippath-7);
      }

      .cls-3 {
        clip-path: url(#clippath-4);
      }

      .cls-4 {
        fill: url(#linear-gradient-2);
      }

      .cls-5 {
        stroke-linejoin: round;
      }

      .cls-5, .cls-6, .cls-7 {
        fill: none;
      }

      .cls-5, .cls-7 {
        stroke: #fff;
        stroke-width: .75px;
      }

      .cls-8 {
        fill: url(#linear-gradient-4);
      }

      .cls-7 {
        stroke-miterlimit: 10;
      }

      .cls-9 {
        fill: url(#linear-gradient-3);
      }

      .cls-10 {
        clip-path: url(#clippath-1);
      }

      .cls-11 {
        fill: url(#linear-gradient-5);
      }

      .cls-12 {
        clip-path: url(#clippath-5);
      }

      .cls-13 {
        clip-path: url(#clippath-8);
      }

      .cls-14 {
        fill: url(#linear-gradient-8);
      }

      .cls-15 {
        clip-path: url(#clippath-3);
      }

      .cls-16 {
        fill: url(#linear-gradient-7);
      }

      .cls-17 {
        fill: url(#linear-gradient-9);
      }

      .cls-18 {
        fill: url(#linear-gradient-6);
      }

      .cls-19 {
        clip-path: url(#clippath-2);
      }

      .cls-20 {
        fill: #2a963e;
      }

      .cls-21 {
        fill: url(#linear-gradient);
      }

      .cls-22 {
        clip-path: url(#clippath);
      }
    </style>
    <clipPath id="clippath">
      <path class="cls-6" d="M14.47.37c-.86,0-1.56.7-1.56,1.56v23.8c0,.86.7,1.57,1.56,1.57h13.77c.86,0,1.56-.7,1.56-1.57V1.94c0-.86-.7-1.56-1.56-1.56h-13.77Z"/>
    </clipPath>
    <linearGradient id="linear-gradient" x1="-292.67" y1="393.55" x2="-291.67" y2="393.55" gradientTransform="translate(4957.41 6662.7) scale(16.89 -16.89)" gradientUnits="userSpaceOnUse">
      <stop offset="0" stop-color="#70be44"/>
      <stop offset="1" stop-color="#0a6b37"/>
    </linearGradient>
    <clipPath id="clippath-1">
      <path class="cls-6" d="M12.91,19.83v5.9c0,.86.7,1.57,1.56,1.57h13.77c.86,0,1.56-.7,1.56-1.57v-5.9H12.91Z"/>
    </clipPath>
    <linearGradient id="linear-gradient-2" x1="-292.67" y1="393.55" x2="-291.67" y2="393.55" gradientTransform="translate(2961.45 -2159.13) rotate(-90) scale(7.47 -7.47)" gradientUnits="userSpaceOnUse">
      <stop offset="0" stop-color="#3b2314"/>
      <stop offset=".1" stop-color="#3b2314"/>
      <stop offset="1" stop-color="#895432"/>
    </linearGradient>
    <clipPath id="clippath-2">
      <polygon class="cls-6" points="8.74 21.33 2.02 23.93 .47 30.56 25.21 30.56 23.66 23.93 16.94 21.33 8.74 21.33"/>
    </clipPath>
    <linearGradient id="linear-gradient-3" x1="-292.67" y1="393.55" x2="-291.67" y2="393.55" gradientTransform="translate(7238.88 9759.41) scale(24.73 -24.73)" gradientUnits="userSpaceOnUse">
      <stop offset="0" stop-color="#808184"/>
      <stop offset="1" stop-color="#060000"/>
    </linearGradient>
    <clipPath id="clippath-3">
      <path class="cls-6" d="M6.48,11.94l.4.66.44,1.74.69,3.14,1.79,1.83-1.06,2.03,3.23,4.78,4.97-4.78-1.06-2.03,1.79-1.83.66-3.14.44-1.74.42-.66c0-3.64-3.81-6.11-6.35-6.11s-6.35,2.47-6.35,6.11"/>
    </clipPath>
    <linearGradient id="linear-gradient-4" x1="-292.67" y1="393.55" x2="-291.67" y2="393.55" gradientTransform="translate(-3700.29 -4985.61) rotate(-180) scale(12.71 -12.71)" gradientUnits="userSpaceOnUse">
      <stop offset="0" stop-color="#674026"/>
      <stop offset="1" stop-color="#d5a65c"/>
    </linearGradient>
    <clipPath id="clippath-4">
      <path class="cls-6" d="M7.22,30.61l9.72-9.28-9.72,9.28Z"/>
    </clipPath>
    <linearGradient id="linear-gradient-5" x1="-292.67" y1="393.55" x2="-291.67" y2="393.55" gradientTransform="translate(-2827.99 -3799.61) rotate(-180) scale(9.72 -9.72)" gradientUnits="userSpaceOnUse">
      <stop offset="0" stop-color="#674026"/>
      <stop offset="1" stop-color="#d5a65c"/>
    </linearGradient>
    <clipPath id="clippath-5">
      <path class="cls-6" d="M30.96,5.89l-8.02,3.26c-.72.29-1.22,1.16-1.11,1.93l1.27,8.74c.11.77.71,1.79,1.33,2.26l7.1,5.39c.62.47,1.61.44,2.2-.07l6.42-5.58c.59-.51,1.19-1.56,1.33-2.33l1.57-8.56c.14-.77-.34-1.62-1.07-1.9l-8.36-3.18c-.35-.13-.81-.2-1.27-.2-.5,0-1,.08-1.37.23"/>
    </clipPath>
    <linearGradient id="linear-gradient-6" x1="-280.14" y1="388.83" x2="-279.14" y2="388.83" gradientTransform="translate(5973.11 8277.08) scale(21.24 -21.24)" gradientUnits="userSpaceOnUse">
      <stop offset="0" stop-color="#e6e7e8"/>
      <stop offset="1" stop-color="#c4c5c7"/>
    </linearGradient>
    <clipPath id="clippath-6">
      <path class="cls-6" d="M21.83,11.08l1.27,8.74c.11.77.71,1.79,1.33,2.26l7.1,5.39c.62.47,1.13.22,1.13-.56v-10.64c0-.78-.58-1.69-1.28-2.02l-8.46-3.98c-.18-.08-.34-.12-.49-.12-.43,0-.68.35-.59.92"/>
    </clipPath>
    <linearGradient id="linear-gradient-7" x1="-298.37" y1="378.4" x2="-297.37" y2="378.4" gradientTransform="translate(6669.34 -5209.71) rotate(-90) scale(17.55 -17.55)" xlink:href="#linear-gradient-6"/>
    <clipPath id="clippath-7">
      <path class="cls-6" d="M42.02,10.17l-8.1,4.05c-.7.35-1.27,1.27-1.27,2.05v10.64c0,.78.48,1,1.07.49l6.42-5.58c.59-.51,1.19-1.56,1.33-2.33l1.57-8.56c.1-.56-.12-.9-.51-.9-.15,0-.31.04-.5.14"/>
    </clipPath>
    <linearGradient id="linear-gradient-8" x1="-267.09" y1="383.92" x2="-266.09" y2="383.92" gradientTransform="translate(2811.29 4012.93) scale(10.4 -10.4)" xlink:href="#linear-gradient-6"/>
    <clipPath id="clippath-8">
      <path class="cls-6" d="M31.16,5.89l-8.02,3.26c-.72.29-.74.81-.03,1.15l8.24,3.96c.7.34,1.85.33,2.55-.01l8.32-4.07c.7-.34.68-.85-.05-1.13l-8.36-3.18c-.35-.13-.81-.2-1.27-.2-.5,0-.99.08-1.37.23"/>
    </clipPath>
    <linearGradient id="linear-gradient-9" x1="-303.99" y1="363.45" x2="-302.99" y2="363.45" gradientTransform="translate(3244.63 -2672.07) rotate(-90) scale(8.84 -8.84)" xlink:href="#linear-gradient-6"/>
  </defs>
  <g id="Layer_1" data-name="Layer 1">
    <g class="cls-22">
      <rect class="cls-21" x="12.91" y=".37" width="16.89" height="26.93"/>
    </g>
    <path class="cls-7" d="M14.48.38h13.76c.86,0,1.57.7,1.57,1.57v23.8c0,.86-.7,1.56-1.56,1.56h-13.77c-.86,0-1.56-.7-1.56-1.56V1.94c0-.86.7-1.57,1.57-1.57Z"/>
    <g class="cls-10">
      <rect class="cls-4" x="12.91" y="19.83" width="16.89" height="7.47"/>
    </g>
    <g>
      <path class="cls-7" d="M29.81,19.83v5.9c0,.86-.7,1.57-1.56,1.57h-13.77c-.86,0-1.56-.7-1.56-1.57v-5.9"/>
      <path class="cls-7" d="M14.48.38h13.76c.86,0,1.57.7,1.57,1.57v23.8c0,.86-.7,1.57-1.57,1.57h-13.77c-.86,0-1.56-.7-1.56-1.56V1.94c0-.86.7-1.57,1.57-1.57Z"/>
    </g>
    <g class="cls-19">
      <rect class="cls-9" x=".47" y="21.33" width="24.73" height="9.23"/>
    </g>
    <polygon class="cls-7" points="16.94 21.33 23.66 23.93 25.21 30.56 .47 30.56 2.02 23.93 8.74 21.33 16.94 21.33"/>
    <g class="cls-15">
      <rect class="cls-8" x="6.48" y="5.83" width="12.71" height="20.29"/>
    </g>
    <path class="cls-7" d="M16.94,21.33l-1.06-2.03,1.79-1.83.66-3.14.44-1.74.42-.66c0-3.64-3.81-6.11-6.36-6.11s-6.35,2.47-6.35,6.11l.4.66.44,1.74.69,3.14,1.79,1.83-1.06,2.03,3.23,4.78"/>
    <g class="cls-3">
      <rect class="cls-11" x="7.22" y="21.33" width="9.72" height="9.28"/>
    </g>
    <line class="cls-7" x1="7.22" y1="30.61" x2="16.94" y2="21.33"/>
  </g>
  <g id="Layer_2" data-name="Layer 2">
    <g class="cls-12">
      <rect class="cls-18" x="21.72" y="5.66" width="21.46" height="22.29"/>
    </g>
    <g class="cls-1">
      <rect class="cls-16" x="21.74" y="10.16" width="10.91" height="17.79"/>
    </g>
    <g class="cls-2">
      <rect class="cls-14" x="32.65" y="10.04" width="10.48" height="17.88"/>
    </g>
    <g class="cls-13">
      <rect class="cls-17" x="22.4" y="5.66" width="20.51" height="8.92"/>
    </g>
    <g>
      <path class="cls-7" d="M33.6,5.86c-.73-.28-1.92-.26-2.64.03l-8.02,3.26c-.72.29-1.22,1.16-1.11,1.94l1.27,8.74c.11.77.71,1.79,1.33,2.26l7.1,5.4c.62.47,1.61.44,2.2-.07l6.42-5.58c.59-.51,1.18-1.56,1.32-2.32l1.57-8.57c.14-.77-.34-1.62-1.07-1.9l-8.36-3.18Z"/>
      <polygon class="cls-20" points="39.05 23.88 39.04 28.33 35.46 28.32 35.47 23.88 31.04 23.87 31.05 20.28 35.48 20.29 35.48 15.85 39.06 15.85 39.05 20.3 43.49 20.3 43.48 23.89 39.05 23.88"/>
      <polygon class="cls-5" points="39.05 23.88 39.04 28.33 35.46 28.32 35.47 23.88 31.04 23.87 31.05 20.28 35.48 20.29 35.48 15.85 39.06 15.85 39.05 20.3 43.49 20.3 43.48 23.89 39.05 23.88"/>
    </g>
  </g>
</svg>