<?xml version="1.0" encoding="UTF-8"?>
<svg id="Layer_1" data-name="Layer 1" xmlns="http://www.w3.org/2000/svg" xmlns:xlink="http://www.w3.org/1999/xlink" viewBox="0 0 34.5 34.56">
  <defs>
    <style>
      .cls-1 {
        clip-path: url(#clippath-6);
      }

      .cls-2 {
        clip-path: url(#clippath-7);
      }

      .cls-3 {
        clip-path: url(#clippath-4);
      }

      .cls-4 {
        fill: url(#linear-gradient-2);
      }

      .cls-5 {
        fill: #fff;
      }

      .cls-6 {
        fill: none;
      }

      .cls-7 {
        fill: url(#linear-gradient-4);
      }

      .cls-8 {
        fill: url(#linear-gradient-3);
      }

      .cls-9 {
        clip-path: url(#clippath-1);
      }

      .cls-10 {
        fill: url(#linear-gradient-5);
      }

      .cls-11 {
        clip-path: url(#clippath-5);
      }

      .cls-12 {
        fill: url(#linear-gradient-8);
      }

      .cls-13 {
        clip-path: url(#clippath-3);
      }

      .cls-14 {
        fill: url(#linear-gradient-7);
      }

      .cls-15 {
        fill: url(#linear-gradient-6);
      }

      .cls-16 {
        clip-path: url(#clippath-2);
      }

      .cls-17 {
        fill: url(#linear-gradient);
      }

      .cls-18 {
        clip-path: url(#clippath);
      }
    </style>
    <clipPath id="clippath">
      <path class="cls-6" d="M14.92,24.06c.38,2.83-.38,7.36-.38,7.36l-.1.39h.27l6.63-5.85s.34-2.87-.11-5.12l-6.3,3.23ZM20.48,9.45h0s0,0,0,0ZM20.44,9.35s0,0,0,0c0,0,0,0,0,0M20.44,9.34s0,0,0-.01c0,0,0,0,0,.01M20.43,9.31s0,0,0,0c0,0,0,0,0,0M20.42,9.29s0-.01,0-.02c0,0,0,.01,0,.02M20.41,9.26s0,0,0-.02c0,0,0,.01,0,.02M20.4,9.24s0,0,0,0c0,0,0,0,0,0M20.34,9.09h0s0,0,0,0M20.31,9s0,0,0-.01c0,0,0,0,0,.01M20.29,8.94s0,0,0,0t0,0M20.28,8.92s0-.02-.01-.03c0,.01,0,.02.01.03M20.26,8.86s-.03-.07-.04-.11c.01.04.03.07.04.11M20.21,8.75s0-.01,0-.02c0,0,0,.01,0,.02M17.18,3.66h0,0ZM17.19,3.65s0,0,0,0c0,0,0,0,0,0M18.5,3.54s0,0,0,0c0,0,0,0,0,0M17.9,3.25h0,0ZM18.48,3.52c-.23-.2-.41-.27-.57-.27.16,0,.35.07.57.27"/>
    </clipPath>
    <linearGradient id="linear-gradient" x1="-17.63" y1="179.26" x2="-16.63" y2="179.26" gradientTransform="translate(-4272.24 425.84) rotate(90) scale(23.93 -23.93)" gradientUnits="userSpaceOnUse">
      <stop offset="0" stop-color="#00aeef"/>
      <stop offset=".09" stop-color="#00a4e2"/>
      <stop offset=".71" stop-color="#00658e"/>
      <stop offset="1" stop-color="#004d6d"/>
    </linearGradient>
    <clipPath id="clippath-1">
      <path class="cls-6" d="M4.72,24.89v-.03.03ZM4.72,24.86v-.02.02ZM4.72,24.83v-.02.02ZM4.72,24.81v-.02.02ZM4.72,24.78h0s0,0,0,0ZM4.72,24.75h0s0,0,0,0ZM4.72,24.71h0s0,0,0,0ZM4.72,24.69h0s0,0,0,0ZM14.26,17.01c2.14,2.46,1.11,3.83,1.11,3.83l-.95,1.58c.25.4.4.98.49,1.65l6.3-3.23c-.13-.65-.32-1.25-.61-1.72l1.05-.92v-1.88c-.23-.48-.61-1.08-1.21-1.79l-6.19,2.49Z"/>
    </clipPath>
    <linearGradient id="linear-gradient-2" x1="-17.63" y1="179.36" x2="-16.63" y2="179.36" gradientTransform="translate(-3216.44 324.29) rotate(90) scale(18.01 -18.01)" gradientUnits="userSpaceOnUse">
      <stop offset="0" stop-color="#fd0"/>
      <stop offset=".45" stop-color="#e8bc07"/>
      <stop offset="1" stop-color="#d09910"/>
    </linearGradient>
    <clipPath id="clippath-2">
      <path class="cls-6" d="M6.02,18.26s0,0,0,0c0,0,0,0,0,0M6.03,18.26h0M6.02,18.26s0,0,0,0c0,0,0,0,0,0M6.03,18.26h0M6.03,18.26h0ZM6.03,18.25h0s0,0,0,0ZM6.03,18.25h0s0,0,0,0ZM6.03,18.25s0,0,0,0c0,0,0,0,0,0M6.03,18.24h0,0M6.04,18.24s0,0,0,0c0,0,0,0,0,0M6.04,18.24h0M6.04,18.24s0,0,0,0c0,0,0,0,0,0M6.04,18.24h0M6.04,18.24h0s0,0,0,0ZM6.04,18.24h0M6.04,18.24h0s0,0,0,0M6.04,18.24h0M6.04,18.24h0s0,0,0,0ZM6.52,12.08l.06.28c-.01-.09-.03-.19-.04-.29h-.02c-.09-.34-.13-.67-.13-.99,0,.32.04.65.13.99M13.54,10.36c.18.42.09.33.53,1.48.52,1.37.58,1.44.59,1.44h0s.34.72-.32,1.31c-.36.32.25.71.25.71l-.7.75.1.66c.09.1.18.2.27.29l6.19-2.49c-.15-.17-.31-.35-.48-.54l.04-.73.76-.8s-.66-.42-.27-.77c.72-.64.35-1.41.35-1.41,0,0,0,0,0,0h0s-.06-.07-.36-.82h0s-.03-.07-.04-.1c0,0,0,0,0,0,0,0,0,0,0,0,0,0,0,0,0-.01,0,0,0,0,0-.01,0,0,0,0,0,0,0,0,0,0,0-.01,0,0,0-.01,0-.02,0,0,0,0,0,0,0,0,0,0,0-.02,0,0,0,0,0-.01,0,0,0,0,0,0-.02-.05-.04-.09-.06-.14h0s-.02-.06-.03-.09c0,0,0,0,0-.01,0-.02-.01-.04-.02-.05t0,0s0-.01,0-.02c0-.01,0-.02-.01-.03,0,0,0-.02,0-.03-.01-.03-.03-.07-.04-.11,0,0,0,0,0,0,0,0,0-.01,0-.02l-6.66,1.64Z"/>
    </clipPath>
    <linearGradient id="linear-gradient-3" x1="-17.63" y1="179.54" x2="-16.63" y2="179.54" gradientTransform="translate(-2184.82 221.57) rotate(90) scale(12.25 -12.25)" gradientUnits="userSpaceOnUse">
      <stop offset="0" stop-color="#da2128"/>
      <stop offset=".78" stop-color="#a11116"/>
      <stop offset="1" stop-color="#910d11"/>
    </linearGradient>
    <clipPath id="clippath-3">
      <path class="cls-6" d="M6.39,11.09c0,.32.04.65.13.99h.02c-.06-.43-.11-.88-.14-1.3,0,.1-.01.2-.01.31M7.4,8.37c.08-.09.14-.17.2-.23-.05.05-.12.13-.2.23M17.9,3.25h0c-.28,0-.49.22-.7.4,0,0,0,0,0,0,0,0,0,0,0,0h0s0,0-.01.01c-.36.28-2.63.54-3.79.92l-5.54,3.37c1.1-.33,3.09-.57,3.41-.82.21-.17.41-.39.68-.39.16,0,.34.07.56.27.42.37.34,1.82.77,2.73.14.29.22.48.28.61l6.66-1.64c-.62-1.64-.25-.94-.87-2.25-.46-.97-.38-2.53-.83-2.93,0,0,0,0,0,0,0,0,0,0-.01-.01-.23-.2-.41-.27-.57-.27h0Z"/>
    </clipPath>
    <linearGradient id="linear-gradient-4" x1="-17.63" y1="179.59" x2="-16.63" y2="179.59" gradientTransform="translate(-1572.55 158.88) rotate(90) scale(8.83 -8.83)" gradientUnits="userSpaceOnUse">
      <stop offset="0" stop-color="#d1d3d4"/>
      <stop offset=".42" stop-color="#d1d3d4"/>
      <stop offset="1" stop-color="#939598"/>
    </linearGradient>
    <clipPath id="clippath-4">
      <path class="cls-6" d="M8.2,27.51l-3.48-2.61,3.48,2.61ZM8.2,27.51l5.74,4.3h.49l.1-.39s.76-4.52.38-7.36l-6.72,3.44Z"/>
    </clipPath>
    <linearGradient id="linear-gradient-5" x1="-17.63" y1="178.92" x2="-16.63" y2="178.92" gradientTransform="translate(-4272.28 431.68) rotate(90) scale(23.93 -23.93)" gradientUnits="userSpaceOnUse">
      <stop offset="0" stop-color="#5bcbf5"/>
      <stop offset=".41" stop-color="#4eb0d4"/>
      <stop offset="1" stop-color="#3d8daa"/>
    </linearGradient>
    <clipPath id="clippath-5">
      <path class="cls-6" d="M5.14,20.67c-.22.99-.41,2.31-.42,4.01h0v.02h0s0,.02,0,.03v.16l3.48,2.61,6.72-3.44c-.09-.67-.25-1.25-.49-1.65l.95-1.58s1.02-1.37-1.11-3.83l-9.12,3.66Z"/>
    </clipPath>
    <linearGradient id="linear-gradient-6" x1="-17.63" y1="179.16" x2="-16.63" y2="179.16" gradientTransform="translate(-3215.49 326.07) rotate(90) scale(18.01 -18.01)" gradientUnits="userSpaceOnUse">
      <stop offset="0" stop-color="#ffeb8c"/>
      <stop offset="1" stop-color="#e5c17a"/>
    </linearGradient>
    <clipPath id="clippath-6">
      <path class="cls-6" d="M6.54,12.08c.01.1.03.19.04.29l.3,1.42s-.1.03-.25.08c-.5.17-1.58.6-1.67,1.24,0,.04,0,.09,0,.13,0,.93,1.09,3,1.09,3h0s0,0,0,0c0,0,0,0,0,0s0,0,0,0h0s0,0,0,0h0s0,0,0,0h0s0,0,0,0c0,0,0,0,0,0h0s0,0,0,0c0,0,0,0,0,0,0,0,0,0,0,0,0,0,0,0,0,0-.09.14-.54.88-.89,2.41l9.12-3.66c-.08-.1-.17-.19-.27-.29l-.1-.66.7-.75s-.61-.39-.25-.71c.67-.59.32-1.31.32-1.31h0s-.07-.07-.59-1.44c-.44-1.16-.35-1.06-.53-1.48l-7,1.72Z"/>
    </clipPath>
    <linearGradient id="linear-gradient-7" x1="-17.63" y1="179.36" x2="-16.63" y2="179.36" gradientTransform="translate(-2186.33 223.81) rotate(90) scale(12.25 -12.25)" gradientUnits="userSpaceOnUse">
      <stop offset="0" stop-color="#e98b70"/>
      <stop offset=".41" stop-color="#d57f66"/>
      <stop offset="1" stop-color="#bd715b"/>
    </linearGradient>
    <clipPath id="clippath-7">
      <path class="cls-6" d="M11.25,7.14c-.32.25-2.3.49-3.41.82l-.18.11s-.02.02-.06.07c-.05.06-.12.14-.2.23-.34.43-.9,1.3-.99,2.41.03.42.08.87.14,1.29l7-1.72c-.06-.13-.14-.32-.28-.61-.43-.91-.35-2.35-.77-2.73-.22-.2-.4-.27-.56-.27-.27,0-.47.22-.68.39"/>
    </clipPath>
    <linearGradient id="linear-gradient-8" x1="-17.63" y1="179.21" x2="-16.63" y2="179.21" gradientTransform="translate(-1572.54 158.89) rotate(90) scale(8.83 -8.83)" gradientUnits="userSpaceOnUse">
      <stop offset="0" stop-color="#e4e5e6"/>
      <stop offset=".42" stop-color="#e4e5e6"/>
      <stop offset="1" stop-color="#c2c4c6"/>
    </linearGradient>
  </defs>
  <g class="cls-18">
    <rect class="cls-17" x="7.41" y="3.5" width="21.27" height="28.05" transform="translate(-6.55 12.23) rotate(-32)"/>
  </g>
  <g class="cls-9">
    <rect class="cls-4" x="3.26" y="10.82" width="19.86" height="17.77" transform="translate(-8.44 9.98) rotate(-32)"/>
  </g>
  <g class="cls-16">
    <rect class="cls-8" x="4.65" y="5.42" width="17.93" height="16.14" transform="translate(-5.08 9.27) rotate(-32)"/>
  </g>
  <g class="cls-13">
    <rect class="cls-7" x="6.39" y="3.25" width="13.81" height="8.83"/>
  </g>
  <path class="cls-5" d="M7.84,7.96s-.08.02-.12.04c0,0-.05.05-.13.14.04-.04.06-.07.06-.07l.19-.11ZM7.4,8.37c-.41.51-1.06,1.46-1,2.36,0,.02,0,.04,0,.06.09-1.11.65-1.98.99-2.41M6.58,12.36c.11.77.23,1.39.23,1.39l-.19.11c-.5.17-1.58.6-1.67,1.24,0,.04,0,.09,0,.13,0-.05,0-.09,0-.13.09-.65,1.17-1.08,1.67-1.24.15-.05.25-.08.25-.08l-.3-1.42ZM6.02,18.26c-.15.23-1.27,2.08-1.31,6.42.01-1.7.19-3.02.42-4.01.35-1.54.8-2.27.89-2.41M4.72,24.69v.02-.02M4.72,24.71s0,.02,0,.03c0-.01,0-.02,0-.03M4.72,24.75h0s0,0,0,0M4.72,24.78h0s0,0,0,0M4.72,24.81h0s0,0,0,0M4.72,24.84h0s0,0,0,0M4.72,24.86h0s0,0,0,0M4.72,24.89l9.63,7.22-6.15-4.61-3.48-2.61Z"/>
  <g class="cls-3">
    <rect class="cls-10" x="3.47" y="21.85" width="13.08" height="12.17" transform="translate(-13.28 9.55) rotate(-32)"/>
  </g>
  <g class="cls-11">
    <rect class="cls-15" x="2.82" y="14.71" width="15.46" height="15.09" transform="translate(-10.19 8.98) rotate(-32)"/>
  </g>
  <path class="cls-5" d="M6.04,18.24,6.04,18.24h0s0,0,0,0M6.04,18.24s0,0,0,0t0,0M6.03,18.24h0s0,0,0,0ZM6.03,18.24h0s0,0,0,0M6.03,18.25s0,0,0,0c0,0,0,0,0,0M6.03,18.25s0,0,0,0t0,0M6.03,18.25h0s0,0,0,0M6.03,18.25s0,0,0,0c0,0,0,0,0,0M6.03,18.25s0,0,0,0c0,0,0,0,0,0M6.02,18.26h0s0,0,0,0Z"/>
  <g class="cls-1">
    <rect class="cls-14" x="2.98" y="8.48" width="13.99" height="14.08" transform="translate(-6.71 7.65) rotate(-32)"/>
  </g>
  <g class="cls-2">
    <rect class="cls-12" x="6.4" y="6.75" width="7.14" height="5.33"/>
  </g>
  <path class="cls-5" d="M19.96,13.98l-.27.26c1.75,1.87,1.94,2.98,1.94,3.37v.16s-.02.02-.02.02l.14.04-.14-.05h0s.14.05.14.05l-.14-.05.35.13-.25-.28-1.6,1.41.17.27c.61.98.8,2.82.79,4.3,0,.65-.03,1.23-.06,1.64-.03.41-.06.66-.06.66l.37.04-.25-.28-6.75,5.96-9.39-7.04-.22.3h.38c0-2.37.33-4,.64-5.02.16-.51.32-.88.43-1.1.06-.11.1-.2.14-.25l.03-.05h0s-.03-.03-.03-.03l.03.02h0l-.03-.02.03.02.13-.19-.11-.21s-.07-.12-.17-.33c-.15-.31-.38-.79-.56-1.27-.19-.48-.33-.98-.32-1.22v-.08s0,0,0,0c0-.06.05-.15.14-.24.26-.3.93-.59,1.28-.7l.17-.05.06-.02.34-.09-.43-2.06h0c-.09-.32-.12-.62-.12-.9,0-.8.29-1.49.58-1.98.15-.25.29-.44.4-.57l.13-.15.03-.04h0s-.26-.28-.26-.28l.2.32,5.73-3.48-.19-.32.12.36c.54-.18,1.39-.34,2.15-.49.38-.07.74-.15,1.03-.22.15-.04.28-.07.4-.12.12-.04.22-.08.32-.16h0c.13-.11.24-.2.32-.26l.18-.07s.15.02.35.19h0s.09.13.15.32c.08.28.14.71.22,1.15.08.45.18.92.38,1.34.31.66.36.79.42.96.06.18.13.44.44,1.27h0c.28.74.44,1.13.53,1.34.05.11.08.17.1.22l.05.08.07.07s.1.08.24.08c.13,0,.26-.09.3-.15l.07-.13-.36-.09-.34.16.09-.04-.09.04h0s.09-.04.09-.04l-.09.04s.06.15.06.32c0,.19-.05.41-.32.65-.15.13-.25.33-.25.52.01.32.19.5.31.63.13.13.24.2.26.21l.2-.32-.27-.26-.85.9-.05.87v.16s.1.12.1.12l.27-.26.37.02.04-.6.97-1.03-.38-.24h0s-.15-.14-.15-.14l-.06-.08h0s-.05,0-.05,0h.05,0s-.05,0-.05,0h.05-.09l.09.04v-.04s-.09,0-.09,0l.09.04-.03-.02.03.02h0s-.03-.02-.03-.02l.03.02h0c.44-.39.57-.87.57-1.22,0-.37-.12-.61-.13-.64l-.44-.93-.26,1,.36.09-.3-.23-.06.13.36.09-.3-.23.3.23v-.37c-.13,0-.26.09-.3.15l.3.23v-.37.37l.23-.29s-.09-.08-.23-.08v.37l.23-.29-.2.25.27-.17-.07-.07-.2.25.27-.17-.06.04.07-.04h0s-.06.04-.06.04l.07-.04s-.17-.34-.59-1.47c-.31-.82-.37-1.03-.43-1.23-.07-.22-.14-.39-.45-1.05-.2-.41-.3-1.02-.39-1.58-.05-.28-.09-.56-.16-.8-.07-.25-.16-.48-.36-.67h0c-.27-.25-.56-.39-.85-.39-.25,0-.46.1-.6.21-.15.1-.26.21-.36.29h0s.04.06.04.06l-.04-.06h0s.04.06.04.06l-.04-.06s-.21.09-.48.15c-.82.2-2.29.41-3.2.71h-.04s-5.8,3.54-5.8,3.54l-.03.03s-1.37,1.32-1.38,3.29c0,.35.04.71.15,1.09l.36-.1-.37.08.36,1.7.37-.08-.1-.36s-.11.03-.27.08c-.27.09-.68.25-1.07.48-.19.12-.38.26-.53.43-.16.17-.29.38-.32.64h0s-.01.18-.01.18c0,.3.08.63.19.97.32,1.02.94,2.19.95,2.2l.33-.17-.31-.22c-.05.06-1.39,1.99-1.39,6.88v.19l10.02,7.52,7.32-6.45.02-.14s.12-1.05.12-2.39c0-1.53-.14-3.44-.9-4.69l-.32.2.25.28,1.43-1.26.03-.09s.06-.18.06-.43c0-.65-.31-1.94-2.15-3.89l-.27.26.37.02-.37-.02Z"/>
</svg>