<?xml version="1.0" encoding="UTF-8"?>
<svg id="Layer_1" data-name="Layer 1" xmlns="http://www.w3.org/2000/svg" xmlns:xlink="http://www.w3.org/1999/xlink" viewBox="0 0 43.94 23.42">
  <defs>
    <style>
      .cls-1 {
        clip-path: url(#clippath-6);
      }

      .cls-2 {
        clip-path: url(#clippath-4);
      }

      .cls-3 {
        fill: url(#linear-gradient-2);
      }

      .cls-4, .cls-5, .cls-6, .cls-7, .cls-8 {
        fill: none;
      }

      .cls-4, .cls-5, .cls-7, .cls-8 {
        stroke: #fff;
      }

      .cls-4, .cls-7 {
        stroke-width: .75px;
      }

      .cls-4, .cls-8 {
        stroke-linejoin: round;
      }

      .cls-9 {
        fill: #00a2b8;
      }

      .cls-10 {
        fill: #fff;
      }

      .cls-5, .cls-7 {
        stroke-miterlimit: 10;
      }

      .cls-5, .cls-8 {
        stroke-width: .5px;
      }

      .cls-11 {
        fill: url(#linear-gradient-4);
      }

      .cls-12 {
        fill: url(#linear-gradient-3);
      }

      .cls-13 {
        clip-path: url(#clippath-1);
      }

      .cls-14 {
        fill: url(#linear-gradient-5);
      }

      .cls-15 {
        clip-path: url(#clippath-5);
      }

      .cls-16 {
        clip-path: url(#clippath-3);
      }

      .cls-17 {
        fill: #2c973e;
      }

      .cls-18 {
        fill: url(#linear-gradient-7);
      }

      .cls-19 {
        fill: url(#linear-gradient-6);
      }

      .cls-20 {
        clip-path: url(#clippath-2);
      }

      .cls-21 {
        fill: url(#linear-gradient);
      }

      .cls-22 {
        clip-path: url(#clippath);
      }
    </style>
    <clipPath id="clippath">
      <polygon class="cls-6" points="10.79 4.08 10.79 19.05 27.56 19.05 32.1 6.64 32.1 4.08 10.79 4.08"/>
    </clipPath>
    <linearGradient id="linear-gradient" x1="-284.88" y1="53.68" x2="-283.88" y2="53.68" gradientTransform="translate(-701.96 3844.5) rotate(90) scale(13.48 -13.48)" gradientUnits="userSpaceOnUse">
      <stop offset="0" stop-color="#3c2415"/>
      <stop offset=".1" stop-color="#3c2415"/>
      <stop offset="1" stop-color="#8a5432"/>
    </linearGradient>
    <clipPath id="clippath-1">
      <path class="cls-6" d="M10.04,10.37l-7.01,4.77c-.64.44-.66,1.18-.04,1.65l7.1,5.4c.62.47,1.13.22,1.13-.56v-10.64c0-.53-.24-.83-.6-.83-.17,0-.36.07-.57.21"/>
    </clipPath>
    <linearGradient id="linear-gradient-2" x1="-284.88" y1="54.1" x2="-283.88" y2="54.1" gradientTransform="translate(670.18 -3471.01) rotate(-90) scale(12.26 -12.26)" gradientUnits="userSpaceOnUse">
      <stop offset="0" stop-color="#72bf44"/>
      <stop offset=".37" stop-color="#4ea23f"/>
      <stop offset="1" stop-color="#0a6b37"/>
    </linearGradient>
    <clipPath id="clippath-2">
      <path class="cls-6" d="M11.22,10.99v10.64c0,.78.48,1,1.07.49l6.42-5.58c.59-.51.55-1.3-.09-1.75l-6.24-4.4c-.21-.15-.4-.22-.57-.22-.35,0-.58.29-.58.82"/>
    </clipPath>
    <linearGradient id="linear-gradient-3" x1="-284.88" y1="53.55" x2="-283.88" y2="53.55" gradientTransform="translate(2262.88 439.67) scale(7.9 -7.9)" gradientUnits="userSpaceOnUse">
      <stop offset="0" stop-color="#fd0"/>
      <stop offset=".33" stop-color="#eec505"/>
      <stop offset="1" stop-color="#d09910"/>
    </linearGradient>
    <clipPath id="clippath-3">
      <path class="cls-6" d="M9.13.84L1.7,3.86c-.11.04-.2.09-.28.15v.85c.07.05.15.1.24.15l8.24,3.95c.7.34,1.27-.02,1.26-.8l-.11-6.67c0-.26-.07-.48-.19-.64h-1.73Z"/>
    </clipPath>
    <linearGradient id="linear-gradient-4" x1="-284.88" y1="53.77" x2="-283.88" y2="53.77" gradientTransform="translate(467.7 -2435.65) rotate(-90) scale(8.58 -8.58)" gradientUnits="userSpaceOnUse">
      <stop offset="0" stop-color="#9959a4"/>
      <stop offset=".05" stop-color="#9456a1"/>
      <stop offset=".69" stop-color="#5c3584"/>
      <stop offset="1" stop-color="#472979"/>
    </linearGradient>
    <clipPath id="clippath-4">
      <path class="cls-6" d="M11.23.84c-.11.17-.17.38-.17.64l.11,6.67c.01.78.6,1.14,1.29.79l8.32-4.07c.7-.34.68-.85-.05-1.13L13.07.84h-1.84Z"/>
    </clipPath>
    <linearGradient id="linear-gradient-5" x1="-284.88" y1="53.78" x2="-283.88" y2="53.78" gradientTransform="translate(478.51 -2439.41) rotate(-90) scale(8.59 -8.59)" gradientUnits="userSpaceOnUse">
      <stop offset="0" stop-color="#da2128"/>
      <stop offset=".84" stop-color="#9d1014"/>
      <stop offset="1" stop-color="#910d11"/>
    </linearGradient>
    <clipPath id="clippath-5">
      <path class="cls-6" d="M20.58,4.89l-8.1,4.05c-.7.35-.75,1-.11,1.45l6.24,4.4c.64.45,1.27.19,1.41-.58l1.57-8.56c.1-.56-.12-.9-.51-.9-.15,0-.31.04-.5.14"/>
    </clipPath>
    <linearGradient id="linear-gradient-6" x1="-284.88" y1="53.85" x2="-283.88" y2="53.85" gradientTransform="translate(2772.85 531.9) scale(9.69 -9.69)" gradientUnits="userSpaceOnUse">
      <stop offset="0" stop-color="#e5a741"/>
      <stop offset=".67" stop-color="#c76a23"/>
      <stop offset="1" stop-color="#bc5218"/>
    </linearGradient>
    <clipPath id="clippath-6">
      <path class="cls-6" d="M.42,5.28v.71l1.24,8.54c.11.77.73,1.05,1.38.61l7.01-4.77c.18-.12.3-.26.38-.39v-.59c-.09-.16-.25-.3-.49-.41L1.47,5c-.18-.08-.34-.12-.49-.12-.28,0-.48.15-.57.41"/>
    </clipPath>
    <linearGradient id="linear-gradient-7" x1="-284.88" y1="53.94" x2="-283.88" y2="53.94" gradientTransform="translate(570.45 -2968.83) rotate(-90) scale(10.48 -10.48)" gradientUnits="userSpaceOnUse">
      <stop offset="0" stop-color="#00aeef"/>
      <stop offset=".43" stop-color="#0083b5"/>
      <stop offset="1" stop-color="#004d6d"/>
    </linearGradient>
  </defs>
  <polygon class="cls-10" points="37.27 16.15 41.11 11.56 37.27 6.98 21.27 6.98 22.27 16.15 37.27 16.15"/>
  <polygon class="cls-9" points="38.82 17.23 43.56 11.56 38.82 5.89 35.49 5.89 40.23 11.56 35.49 17.23 38.82 17.23"/>
  <polygon class="cls-4" points="38.82 17.23 43.56 11.56 38.82 5.89 35.49 5.89 40.23 11.56 35.49 17.23 38.82 17.23"/>
  <polygon class="cls-9" points="37.17 14.4 39.54 11.56 37.17 8.73 35.51 8.73 37.88 11.56 35.51 14.4 37.17 14.4"/>
  <polygon class="cls-8" points="37.17 14.4 39.54 11.56 37.17 8.73 35.51 8.73 37.88 11.56 35.51 14.4 37.17 14.4"/>
  <g class="cls-22">
    <rect class="cls-21" x="10.79" y="4.08" width="21.31" height="14.97"/>
  </g>
  <path class="cls-10" d="M32.47,3.7H10.42v15.72h17.4l4.65-12.72v-3ZM31.72,4.45v2.12l-4.43,12.1H11.17V4.45h20.56Z"/>
  <path class="cls-10" d="M12.16.57c-.73-.28-1.92-.26-2.64.03L1.5,3.86c-.72.29-1.22,1.16-1.11,1.94l1.27,8.74c.11.77.71,1.79,1.33,2.26l7.1,5.4c.62.47,1.61.44,2.2-.07l6.42-5.58c.59-.51,1.18-1.56,1.32-2.32l1.57-8.56c.14-.77-.34-1.62-1.07-1.9L12.16.57Z"/>
  <g class="cls-13">
    <rect class="cls-3" x="2.37" y="10.17" width="8.85" height="12.5"/>
  </g>
  <path class="cls-5" d="M10.04,10.37c.64-.44,1.17-.16,1.17.62v10.64c0,.78-.51,1.03-1.13.56l-7.1-5.4c-.62-.47-.6-1.22.04-1.65l7.01-4.77Z"/>
  <g class="cls-20">
    <rect class="cls-12" x="11.22" y="10.18" width="8.08" height="12.45"/>
  </g>
  <path class="cls-5" d="M18.61,14.79c.64.45.68,1.24.09,1.75l-6.42,5.58c-.59.51-1.07.29-1.07-.49v-10.64c0-.78.52-1.05,1.16-.6l6.24,4.4Z"/>
  <g class="cls-16">
    <rect class="cls-11" x="1.42" y=".84" width="9.75" height="8.46"/>
  </g>
  <path class="cls-5" d="M11.06,1.49c-.01-.78-.61-1.18-1.34-.88L1.7,3.86c-.72.29-.74.81-.04,1.15l8.24,3.95c.7.34,1.27-.03,1.26-.8l-.1-6.67Z"/>
  <g class="cls-2">
    <rect class="cls-14" x="11.05" y=".84" width="10.42" height="8.45"/>
  </g>
  <path class="cls-5" d="M11.16,8.16c.01.78.59,1.14,1.29.79l8.32-4.07c.7-.34.68-.85-.05-1.13L12.36.57c-.73-.28-1.31.13-1.3.91l.11,6.67Z"/>
  <g class="cls-15">
    <rect class="cls-19" x="11.74" y="4.75" width="9.96" height="10.49"/>
  </g>
  <path class="cls-5" d="M18.61,14.79c.64.45,1.27.19,1.41-.58l1.57-8.56c.14-.77-.32-1.11-1.01-.76l-8.1,4.05c-.7.35-.75,1-.11,1.45l6.24,4.4Z"/>
  <g class="cls-1">
    <rect class="cls-18" x=".42" y="4.88" width="10" height="10.7"/>
  </g>
  <g>
    <path class="cls-5" d="M10.04,10.37c.64-.44.59-1.07-.11-1.4L1.47,5c-.71-.33-1.19.03-1.08.8l1.27,8.74c.11.77.73,1.04,1.38.61l7.01-4.77Z"/>
    <path class="cls-7" d="M12.16.57c-.73-.28-1.92-.26-2.64.03L1.5,3.86c-.72.29-1.22,1.16-1.11,1.94l1.27,8.74c.11.77.71,1.79,1.33,2.26l7.1,5.4c.62.47,1.61.44,2.2-.07l6.42-5.58c.59-.51,1.18-1.56,1.32-2.32l1.57-8.56c.14-.77-.34-1.62-1.07-1.9L12.16.57Z"/>
  </g>
  <polygon class="cls-17" points="17.61 18.6 17.6 23.05 14.02 23.04 14.03 18.6 9.6 18.59 9.61 15 14.04 15.01 14.04 10.57 17.62 10.57 17.61 15.02 22.05 15.02 22.04 18.6 17.61 18.6"/>
  <polygon class="cls-4" points="17.61 18.6 17.6 23.05 14.02 23.04 14.03 18.6 9.6 18.59 9.61 15 14.04 15.01 14.04 10.57 17.62 10.57 17.61 15.02 22.05 15.02 22.04 18.6 17.61 18.6"/>
</svg>