<?xml version="1.0" encoding="UTF-8"?>
<svg id="Layer_1" data-name="Layer 1" xmlns="http://www.w3.org/2000/svg" xmlns:xlink="http://www.w3.org/1999/xlink" viewBox="0 0 41.75 23.42">
  <defs>
    <style>
      .cls-1 {
        fill: url(#linear-gradient-2);
      }

      .cls-2, .cls-3, .cls-4, .cls-5 {
        fill: none;
      }

      .cls-2, .cls-4 {
        stroke-width: .75px;
      }

      .cls-2, .cls-4, .cls-5 {
        stroke: #fff;
      }

      .cls-2, .cls-5 {
        stroke-linejoin: round;
      }

      .cls-6 {
        fill: #00a2b8;
      }

      .cls-7 {
        fill: #fff;
      }

      .cls-8 {
        fill: url(#linear-gradient-4);
      }

      .cls-4 {
        stroke-miterlimit: 10;
      }

      .cls-9 {
        fill: url(#linear-gradient-3);
      }

      .cls-10 {
        clip-path: url(#clippath-1);
      }

      .cls-11 {
        fill: url(#linear-gradient-5);
      }

      .cls-5 {
        stroke-width: .5px;
      }

      .cls-12 {
        clip-path: url(#clippath-3);
      }

      .cls-13 {
        fill: #2c973e;
      }

      .cls-14 {
        clip-path: url(#clippath-2);
      }

      .cls-15 {
        fill: url(#linear-gradient);
      }

      .cls-16 {
        clip-path: url(#clippath);
      }
    </style>
    <clipPath id="clippath">
      <polygon class="cls-3" points="11.84 4.07 11.84 6.63 16.38 19.05 36.14 19.05 36.14 4.07 11.84 4.07"/>
    </clipPath>
    <linearGradient id="linear-gradient" x1="-621.56" y1="608.78" x2="-620.56" y2="608.78" gradientTransform="translate(-8179.52 8381.34) rotate(90) scale(13.48 -13.48)" gradientUnits="userSpaceOnUse">
      <stop offset="0" stop-color="#3c2415"/>
      <stop offset=".1" stop-color="#3c2415"/>
      <stop offset="1" stop-color="#8a5432"/>
    </linearGradient>
    <linearGradient id="linear-gradient-2" x1="-621.56" y1="609.19" x2="-620.56" y2="609.19" gradientTransform="translate(6846.95 7062.89) scale(10.98 -11.58)" gradientUnits="userSpaceOnUse">
      <stop offset="0" stop-color="#e6e7e8"/>
      <stop offset="1" stop-color="#c4c6c8"/>
    </linearGradient>
    <clipPath id="clippath-1">
      <path class="cls-3" d="M19.72,5.8l1.27,8.74c.11.77.71,1.79,1.33,2.26l7.1,5.4c.62.47,1.13.22,1.13-.56v-10.64c0-.78-.58-1.69-1.28-2.02l-8.46-3.97c-.18-.08-.34-.12-.49-.12-.43,0-.68.35-.59.92"/>
    </clipPath>
    <linearGradient id="linear-gradient-3" x1="-621.56" y1="609.4" x2="-620.56" y2="609.4" gradientTransform="translate(10722 -10887.92) rotate(-90) scale(17.55 -17.55)" gradientUnits="userSpaceOnUse">
      <stop offset="0" stop-color="#e6e7e8"/>
      <stop offset="1" stop-color="#c4c6c8"/>
    </linearGradient>
    <clipPath id="clippath-2">
      <path class="cls-3" d="M39.91,4.89l-8.1,4.05c-.7.35-1.27,1.27-1.27,2.05v10.64c0,.78.48,1,1.07.49l6.42-5.58c.59-.51,1.18-1.56,1.32-2.32l1.57-8.56c.1-.56-.12-.9-.51-.9-.15,0-.31.04-.5.14"/>
    </clipPath>
    <linearGradient id="linear-gradient-4" x1="-621.56" y1="608.75" x2="-620.56" y2="608.75" gradientTransform="translate(6496.8 6346.74) scale(10.4 -10.4)" gradientUnits="userSpaceOnUse">
      <stop offset="0" stop-color="#e6e7e8"/>
      <stop offset="1" stop-color="#c4c6c8"/>
    </linearGradient>
    <clipPath id="clippath-3">
      <path class="cls-3" d="M28.46.84l-7.44,3.02c-.72.29-.74.81-.03,1.15l8.24,3.95c.7.34,1.85.33,2.55-.01l8.32-4.08c.14-.07.25-.15.34-.22v-.68c-.09-.08-.22-.16-.39-.22l-7.66-2.91h-3.93Z"/>
    </clipPath>
    <linearGradient id="linear-gradient-5" x1="-621.56" y1="608.46" x2="-620.56" y2="608.46" gradientTransform="translate(5407.56 -5483.75) rotate(-90) scale(8.84 -8.84)" gradientUnits="userSpaceOnUse">
      <stop offset="0" stop-color="#e6e7e8"/>
      <stop offset="1" stop-color="#c4c6c8"/>
    </linearGradient>
  </defs>
  <polygon class="cls-7" points="6.67 16.15 2.83 11.56 6.67 6.97 22.67 6.97 21.67 16.15 6.67 16.15"/>
  <polygon class="cls-6" points="5.12 17.23 .38 11.56 5.12 5.89 8.45 5.89 3.7 11.56 8.45 17.23 5.12 17.23"/>
  <polygon class="cls-2" points="5.12 17.23 .38 11.56 5.12 5.89 8.45 5.89 3.7 11.56 8.45 17.23 5.12 17.23"/>
  <polygon class="cls-6" points="6.76 14.39 4.39 11.56 6.76 8.72 8.43 8.72 6.06 11.56 8.43 14.39 6.76 14.39"/>
  <polygon class="cls-5" points="6.76 14.39 4.39 11.56 6.76 8.72 8.43 8.72 6.06 11.56 8.43 14.39 6.76 14.39"/>
  <g class="cls-16">
    <rect class="cls-15" x="11.84" y="4.07" width="24.31" height="14.97"/>
  </g>
  <path class="cls-7" d="M36.52,3.7H11.46v3s4.65,12.72,4.65,12.72h20.41V3.7ZM35.77,4.45v14.22h-19.13l-4.42-12.1v-2.12s23.56,0,23.56,0Z"/>
  <rect class="cls-1" x="22.41" y="2.74" width="11.09" height="11.89" transform="translate(-1.31 7.83) rotate(-15.59)"/>
  <g class="cls-10">
    <rect class="cls-9" x="19.63" y="4.88" width="10.91" height="17.79"/>
  </g>
  <g class="cls-14">
    <rect class="cls-8" x="30.54" y="4.75" width="10.48" height="17.88"/>
  </g>
  <g class="cls-12">
    <rect class="cls-11" x="20.28" y=".84" width="20.15" height="8.46"/>
  </g>
  <path class="cls-4" d="M31.49.57c-.73-.28-1.92-.26-2.64.03l-8.02,3.26c-.72.29-1.22,1.16-1.11,1.94l1.27,8.74c.11.77.71,1.79,1.33,2.26l7.1,5.4c.62.47,1.61.44,2.2-.07l6.42-5.58c.59-.51,1.18-1.56,1.33-2.32l1.57-8.57c.14-.77-.34-1.62-1.07-1.9L31.49.57Z"/>
  <polygon class="cls-13" points="36.93 18.6 36.92 23.05 33.35 23.04 33.36 18.59 28.92 18.58 28.93 15 33.36 15.01 33.37 10.56 36.95 10.57 36.94 15.01 41.37 15.01 41.37 18.6 36.93 18.6"/>
  <polygon class="cls-2" points="36.93 18.6 36.92 23.05 33.35 23.04 33.36 18.59 28.92 18.58 28.93 15 33.36 15.01 33.37 10.56 36.95 10.57 36.94 15.01 41.37 15.01 41.37 18.6 36.93 18.6"/>
</svg>