<?xml version="1.0" encoding="UTF-8"?>
<svg id="Layer_1" data-name="Layer 1" xmlns="http://www.w3.org/2000/svg" xmlns:xlink="http://www.w3.org/1999/xlink" viewBox="0 0 39.84 39.8">
  <defs>
    <style>
      .cls-1 {
        fill: url(#linear-gradient-2);
      }

      .cls-2, .cls-3, .cls-4, .cls-5 {
        fill: none;
      }

      .cls-2, .cls-4 {
        stroke-width: .75px;
      }

      .cls-2, .cls-4, .cls-5 {
        stroke: #fff;
      }

      .cls-2, .cls-5 {
        stroke-linejoin: round;
      }

      .cls-6 {
        fill: #fff;
      }

      .cls-7 {
        fill: url(#linear-gradient-4);
      }

      .cls-4 {
        stroke-miterlimit: 10;
      }

      .cls-8 {
        fill: url(#linear-gradient-3);
      }

      .cls-9 {
        clip-path: url(#clippath-1);
      }

      .cls-10 {
        fill: url(#linear-gradient-5);
      }

      .cls-5 {
        stroke-width: .5px;
      }

      .cls-11 {
        clip-path: url(#clippath-3);
      }

      .cls-12 {
        fill: #06a1b6;
      }

      .cls-13 {
        clip-path: url(#clippath-2);
      }

      .cls-14 {
        fill: url(#linear-gradient);
      }

      .cls-15 {
        clip-path: url(#clippath);
      }
    </style>
    <clipPath id="clippath">
      <path class="cls-3" d="M8.21,5.65c-.86,0-1.56.7-1.56,1.56v23.8c0,.86.7,1.57,1.56,1.57h13.77c.86,0,1.56-.7,1.56-1.57V7.21c0-.86-.7-1.56-1.56-1.56h-13.77Z"/>
    </clipPath>
    <linearGradient id="linear-gradient" x1="-96.97" y1="646.68" x2="-95.97" y2="646.68" gradientTransform="translate(1644.93 10944.5) scale(16.89 -16.89)" gradientUnits="userSpaceOnUse">
      <stop offset="0" stop-color="#70be44"/>
      <stop offset="1" stop-color="#0a6b37"/>
    </linearGradient>
    <clipPath id="clippath-1">
      <polygon class="cls-3" points="11.27 13.1 10.07 24.52 17.38 30.08 29.81 19.26 28.21 12.99 19.59 9.72 11.27 13.1"/>
    </clipPath>
    <linearGradient id="linear-gradient-2" x1="-96.97" y1="646.66" x2="-95.97" y2="646.66" gradientTransform="translate(-11725.67 1770.23) rotate(90) scale(18.16 -18.16)" gradientUnits="userSpaceOnUse">
      <stop offset="0" stop-color="#fd0"/>
      <stop offset=".24" stop-color="#fd0"/>
      <stop offset="1" stop-color="#cf9810"/>
    </linearGradient>
    <clipPath id="clippath-2">
      <polygon class="cls-3" points="10.07 24.52 17.38 30.08 18.73 17.16 11.27 13.1 10.07 24.52"/>
    </clipPath>
    <linearGradient id="linear-gradient-3" x1="-96.97" y1="646.69" x2="-95.97" y2="646.69" gradientTransform="translate(-1065.6 -7221.96) rotate(-180) scale(11.2 -11.2)" gradientUnits="userSpaceOnUse">
      <stop offset="0" stop-color="#fd0"/>
      <stop offset=".11" stop-color="#fd0"/>
      <stop offset="1" stop-color="#cf9810"/>
    </linearGradient>
    <clipPath id="clippath-3">
      <polygon class="cls-3" points="18.6 17.16 17.38 30.08 29.81 19.26 28.21 12.99 18.6 17.16"/>
    </clipPath>
    <linearGradient id="linear-gradient-4" x1="-96.97" y1="646.72" x2="-95.97" y2="646.72" gradientTransform="translate(-6931.49 1057.9) rotate(90) scale(10.75 -10.75)" gradientUnits="userSpaceOnUse">
      <stop offset="0" stop-color="#fd0"/>
      <stop offset="1" stop-color="#cf9810"/>
    </linearGradient>
    <linearGradient id="linear-gradient-5" x1="-96.97" y1="646.68" x2="-95.97" y2="646.68" gradientTransform="translate(6517.56 -949.72) rotate(-90) scale(10.05 -10.05)" gradientUnits="userSpaceOnUse">
      <stop offset="0" stop-color="#fd0"/>
      <stop offset="1" stop-color="#cf9810"/>
    </linearGradient>
  </defs>
  <g class="cls-15">
    <rect class="cls-14" x="6.64" y="5.65" width="16.89" height="26.93"/>
  </g>
  <g>
    <path class="cls-4" d="M8.21,5.65h13.76c.86,0,1.57.7,1.57,1.57v23.8c0,.86-.7,1.56-1.56,1.56h-13.77c-.86,0-1.56-.7-1.56-1.56V7.21c0-.86.7-1.57,1.57-1.57Z"/>
    <polygon class="cls-6" points="6.67 23.7 2.83 19.11 6.67 14.52 22.67 14.52 21.67 23.7 6.67 23.7"/>
    <polygon class="cls-12" points="5.12 24.78 .38 19.11 5.12 13.44 8.45 13.44 3.71 19.11 8.45 24.78 5.12 24.78"/>
    <polygon class="cls-2" points="5.12 24.78 .38 19.11 5.12 13.44 8.45 13.44 3.71 19.11 8.45 24.78 5.12 24.78"/>
    <polygon class="cls-12" points="6.76 21.94 4.39 19.11 6.76 16.28 8.43 16.28 6.06 19.11 8.43 21.94 6.76 21.94"/>
    <polygon class="cls-5" points="6.76 21.94 4.39 19.11 6.76 16.28 8.43 16.28 6.06 19.11 8.43 21.94 6.76 21.94"/>
  </g>
  <g class="cls-9">
    <rect class="cls-1" x="5.8" y="5.8" width="28.29" height="28.21" transform="translate(-8.12 22.38) rotate(-50)"/>
  </g>
  <g class="cls-13">
    <rect class="cls-8" x="5.11" y="12.82" width="18.57" height="17.55" transform="translate(-11.4 18.74) rotate(-50)"/>
  </g>
  <g class="cls-11">
    <rect class="cls-7" x="13.09" y="11.88" width="21.01" height="19.31" transform="translate(-6.85 31.2) rotate(-60)"/>
  </g>
  <g>
    <polygon class="cls-4" points="19.59 9.72 11.27 13.1 10.07 24.52 17.38 30.08 29.81 19.26 28.21 12.99 19.59 9.72"/>
    <polygon class="cls-6" points="21.2 17.92 21.2 14.86 18.04 14.86 18.04 17.92 14.66 17.92 19.62 24.26 24.58 17.92 21.2 17.92"/>
    <polygon class="cls-10" points="21.2 17.92 21.2 17.92 21.2 14.86 18.04 14.86 18.04 17.92 14.66 17.92 19.62 24.26 24.58 17.92 21.2 17.92 21.2 17.92 21.2 17.92 24.58 17.92 19.62 24.26 14.66 17.92 18.04 17.92 18.04 14.86 21.2 14.86 21.2 17.92 21.2 17.92"/>
  </g>
</svg>