<?xml version="1.0" encoding="UTF-8"?>
<svg id="Layer_1" data-name="Layer 1" xmlns="http://www.w3.org/2000/svg" xmlns:xlink="http://www.w3.org/1999/xlink" viewBox="0 0 33.57 30.42">
  <defs>
    <style>
      .cls-1 {
        fill: url(#linear-gradient-2);
      }

      .cls-2, .cls-3 {
        fill: none;
      }

      .cls-3 {
        stroke: #fff;
        stroke-miterlimit: 10;
        stroke-width: .75px;
      }

      .cls-4 {
        clip-path: url(#clippath-1);
      }

      .cls-5 {
        fill: url(#linear-gradient);
      }

      .cls-6 {
        clip-path: url(#clippath);
      }
    </style>
    <clipPath id="clippath">
      <polygon class="cls-2" points="6.89 9 6.89 12.16 8.89 12.16 8.89 15.33 6.58 15.33 .48 26.72 5.02 30.04 22.07 30.04 26.6 26.72 20.5 15.33 18.2 15.33 18.2 12.16 20.19 12.16 20.19 9 6.89 9"/>
    </clipPath>
    <linearGradient id="linear-gradient" x1="-286.17" y1="642.88" x2="-285.17" y2="642.88" gradientTransform="translate(7474.69 16810.22) scale(26.12 -26.12)" gradientUnits="userSpaceOnUse">
      <stop offset="0" stop-color="#808184"/>
      <stop offset="1" stop-color="#060000"/>
    </linearGradient>
    <clipPath id="clippath-1">
      <path class="cls-2" d="M21.58,6.53c-3.44,2.57-6.39,5.62-8.88,9.13-2.48,3.5-4.37,7.29-5.75,11.43,1.09-.62,2.08-1.2,3.09-1.75.36-.19.6-.41.65-.84.03-.27.14-.53.23-.79.58-1.74,1.33-3.39,2.64-4.71.23-.24.57-.42.89-.52.64-.2,1.3-.09,1.94.02,1.11.18,2.2.41,3.31.54.89.1,1.77.01,2.42-.74.7-.82,1.37-1.66,2.06-2.49.02-.02,0-.06,0-.09-1.44-.34-2.81-.78-3.96-1.87.29-.02.5-.02.71-.04,1.83-.17,3.58-.67,5.32-1.27.09-.03.19-.08.23-.14.22-.33.43-.67.65-1.02-1.03-.38-2.02-.77-2.83-1.59,1.43-.05,2.75-.33,4.05-.7.09-.03.21-.05.25-.12.36-.58.71-1.16,1.07-1.76-.92-.38-1.8-.74-2.43-1.4,1.12-.21,2.24-.4,3.35-.62.16-.03.35-.18.42-.32.49-.95.96-1.91,1.4-2.87.2-.42.34-.88.53-1.39-4.16,1.39-7.92,3.35-11.36,5.92"/>
    </clipPath>
    <linearGradient id="linear-gradient-2" x1="-286.17" y1="642.88" x2="-285.17" y2="642.88" gradientTransform="translate(7445.96 16725.48) scale(26 -26)" gradientUnits="userSpaceOnUse">
      <stop offset="0" stop-color="#674026"/>
      <stop offset="1" stop-color="#d5a65c"/>
    </linearGradient>
  </defs>
  <g class="cls-6">
    <rect class="cls-5" x=".48" y="9" width="26.12" height="21.05"/>
  </g>
  <polygon class="cls-3" points="20.19 9 20.19 12.16 18.2 12.16 18.2 15.33 20.5 15.33 26.6 26.72 22.07 30.04 5.02 30.04 .48 26.72 6.58 15.33 8.89 15.33 8.89 12.16 6.89 12.16 6.89 9 20.19 9"/>
  <g class="cls-4">
    <rect class="cls-1" x="6.95" y=".61" width="25.99" height="26.48"/>
  </g>
  <path class="cls-3" d="M32.95.6c-.19.51-.33.97-.53,1.39-.45.97-.92,1.92-1.4,2.87-.07.14-.26.29-.42.32-1.11.22-2.23.42-3.35.62.63.66,1.5,1.03,2.43,1.4-.36.6-.71,1.18-1.07,1.76-.04.07-.16.09-.25.12-1.3.37-2.62.65-4.05.7.81.83,1.8,1.21,2.83,1.59-.22.35-.43.69-.65,1.02-.05.07-.15.11-.23.14-1.73.59-3.48,1.09-5.32,1.27-.21.02-.42.02-.71.04,1.15,1.09,2.53,1.53,3.96,1.87,0,.03,0,.07,0,.09-.68.83-1.36,1.67-2.06,2.49-.64.75-1.53.84-2.42.74-1.11-.13-2.2-.36-3.31-.54-.65-.11-1.3-.22-1.94-.02-.32.1-.65.28-.89.52-1.31,1.32-2.07,2.97-2.64,4.71-.08.26-.2.52-.23.79-.05.43-.29.65-.65.84-1.01.55-2.01,1.13-3.09,1.75,1.39-4.14,3.28-7.93,5.75-11.43,2.48-3.51,5.43-6.56,8.88-9.13,3.44-2.57,7.21-4.53,11.37-5.92Z"/>
</svg>