<?xml version="1.0" encoding="UTF-8"?>
<svg id="Layer_1" data-name="Layer 1" xmlns="http://www.w3.org/2000/svg" xmlns:xlink="http://www.w3.org/1999/xlink" viewBox="0 0 30.18 30.93">
  <defs>
    <style>
      .cls-1 {
        clip-path: url(#clippath-4);
      }

      .cls-2 {
        fill: url(#linear-gradient-2);
      }

      .cls-3, .cls-4 {
        fill: none;
      }

      .cls-5 {
        fill: url(#linear-gradient-4);
      }

      .cls-4 {
        stroke: #fff;
        stroke-miterlimit: 10;
        stroke-width: .75px;
      }

      .cls-6 {
        fill: url(#linear-gradient-3);
      }

      .cls-7 {
        clip-path: url(#clippath-1);
      }

      .cls-8 {
        fill: url(#linear-gradient-5);
      }

      .cls-9 {
        clip-path: url(#clippath-3);
      }

      .cls-10 {
        clip-path: url(#clippath-2);
      }

      .cls-11 {
        fill: url(#linear-gradient);
      }

      .cls-12 {
        clip-path: url(#clippath);
      }
    </style>
    <clipPath id="clippath">
      <path class="cls-3" d="M14.47.37h13.77c.86,0,1.57.7,1.57,1.57v23.8c0,.86-.7,1.56-1.56,1.56h-13.77c-.86,0-1.56-.7-1.56-1.56V1.94c0-.86.7-1.56,1.56-1.56Z"/>
    </clipPath>
    <linearGradient id="linear-gradient" x1="-182.66" y1="393.23" x2="-181.66" y2="393.23" gradientTransform="translate(3098.86 6657.29) scale(16.89 -16.89)" gradientUnits="userSpaceOnUse">
      <stop offset="0" stop-color="#70be44"/>
      <stop offset="1" stop-color="#0a6b37"/>
    </linearGradient>
    <clipPath id="clippath-1">
      <path class="cls-3" d="M12.91,19.83v5.9c0,.86.7,1.57,1.56,1.57h13.77c.86,0,1.56-.7,1.56-1.57v-5.9H12.91Z"/>
    </clipPath>
    <linearGradient id="linear-gradient-2" x1="-182.66" y1="393.23" x2="-181.66" y2="393.23" gradientTransform="translate(2958.68 -1337.11) rotate(-90) scale(7.47 -7.47)" gradientUnits="userSpaceOnUse">
      <stop offset="0" stop-color="#3b2314"/>
      <stop offset=".1" stop-color="#3b2314"/>
      <stop offset="1" stop-color="#895432"/>
    </linearGradient>
    <clipPath id="clippath-2">
      <polygon class="cls-3" points="8.74 21.33 2.02 23.93 .47 30.56 25.21 30.56 23.66 23.93 16.94 21.33 8.74 21.33"/>
    </clipPath>
    <linearGradient id="linear-gradient-3" x1="-182.66" y1="393.23" x2="-181.66" y2="393.23" gradientTransform="translate(4518.09 9751.51) scale(24.73 -24.73)" gradientUnits="userSpaceOnUse">
      <stop offset="0" stop-color="#808184"/>
      <stop offset="1" stop-color="#060000"/>
    </linearGradient>
    <clipPath id="clippath-3">
      <path class="cls-3" d="M6.48,11.93l.4.66.44,1.74.69,3.14,1.79,1.83-1.06,2.03,3.23,4.78,4.97-4.78-1.06-2.03,1.79-1.83.66-3.14.44-1.74.42-.66c0-3.64-3.81-6.11-6.36-6.11s-6.35,2.47-6.35,6.11"/>
    </clipPath>
    <linearGradient id="linear-gradient-4" x1="-182.66" y1="393.23" x2="-181.66" y2="393.23" gradientTransform="translate(-2302.23 -4981.61) rotate(-180) scale(12.71 -12.71)" gradientUnits="userSpaceOnUse">
      <stop offset="0" stop-color="#674026"/>
      <stop offset="1" stop-color="#d5a65c"/>
    </linearGradient>
    <clipPath id="clippath-4">
      <path class="cls-3" d="M7.22,30.61l9.72-9.28-9.72,9.28Z"/>
    </clipPath>
    <linearGradient id="linear-gradient-5" x1="-182.66" y1="393.23" x2="-181.66" y2="393.23" gradientTransform="translate(-1758.64 -3796.51) rotate(-180) scale(9.72 -9.72)" gradientUnits="userSpaceOnUse">
      <stop offset="0" stop-color="#674026"/>
      <stop offset="1" stop-color="#d5a65c"/>
    </linearGradient>
  </defs>
  <g class="cls-12">
    <rect class="cls-11" x="12.91" y=".37" width="16.89" height="26.93"/>
  </g>
  <path class="cls-4" d="M14.47.38h13.77c.86,0,1.57.7,1.57,1.57v23.8c0,.86-.7,1.56-1.56,1.56h-13.77c-.86,0-1.56-.7-1.56-1.56V1.94c0-.86.7-1.56,1.56-1.56Z"/>
  <g class="cls-7">
    <rect class="cls-2" x="12.91" y="19.83" width="16.89" height="7.47"/>
  </g>
  <g>
    <path class="cls-4" d="M29.81,19.83v5.9c0,.86-.7,1.57-1.56,1.57h-13.77c-.86,0-1.56-.7-1.56-1.57v-5.9"/>
    <path class="cls-4" d="M29.81,25.74c0,.86-.7,1.57-1.56,1.57h-13.77c-.87,0-1.57-.7-1.57-1.57V1.94c0-.86.7-1.56,1.57-1.56h13.77c.86,0,1.56.7,1.56,1.56v23.8Z"/>
  </g>
  <g class="cls-10">
    <rect class="cls-6" x=".47" y="21.33" width="24.73" height="9.23"/>
  </g>
  <polygon class="cls-4" points="16.94 21.33 23.66 23.93 25.21 30.56 .47 30.56 2.02 23.93 8.74 21.33 16.94 21.33"/>
  <g class="cls-9">
    <rect class="cls-5" x="6.48" y="5.83" width="12.71" height="20.29"/>
  </g>
  <path class="cls-4" d="M16.94,21.33l-1.06-2.03,1.79-1.83.66-3.14.44-1.74.42-.66c0-3.64-3.81-6.11-6.36-6.11s-6.35,2.47-6.35,6.11l.4.66.44,1.74.69,3.14,1.79,1.83-1.06,2.03,3.23,4.78"/>
  <g class="cls-1">
    <rect class="cls-8" x="7.22" y="21.33" width="9.72" height="9.28"/>
  </g>
  <line class="cls-4" x1="7.22" y1="30.61" x2="16.94" y2="21.33"/>
</svg>