<?xml version="1.0" encoding="UTF-8"?>
<svg id="Layer_1" data-name="Layer 1" xmlns="http://www.w3.org/2000/svg" xmlns:xlink="http://www.w3.org/1999/xlink" viewBox="0 0 35.92 30.94">
  <defs>
    <style>
      .cls-1 {
        fill: #fff;
      }

      .cls-2 {
        fill: none;
      }

      .cls-3 {
        fill: url(#linear-gradient);
      }

      .cls-4 {
        clip-path: url(#clippath);
      }
    </style>
    <clipPath id="clippath">
      <path class="cls-2" d="M18.12.38c-.89.09-1.51.72-1.55,1.58-.03.72,0,1.33.11,1.87.07.39.04.66-.1.92-.56.97-.82,2.04-.79,3.28,0,.22.01.44-.04.6l-.04.11c-.34,1-.7,2.03-.67,3.15-.1,0-.19.01-.29.01-.58,0-1.12-.14-1.72-.29-.64-.16-1.29-.25-1.93-.25-1.06,0-2.13.23-3.18.69-.11.05-.26.07-.43.07-.09,0-.17,0-.25-.02-.34-.05-.68-.08-1.01-.08-2.46,0-4.18,1.47-4.74,4.03-.26,1.19-.24,2.46.07,3.89.01.05.03.1.07.18.19.79.16.85-.52,1.24l-.45.26.38.35c.39.35.78.53,1.16.53s.78-.19,1.12-.57c.32-.35.6-.8.85-1.37.42-.95.62-1.93.58-2.91-.04-1.07.14-2.1.54-3.07.2-.49.36-.66.65-.71,0,.01-.02.03-.03.04-.29.48-.58.98-.75,1.53-.21.71-.3,1.55-.25,2.45.08,1.59-.36,2.96-1.37,4.2-.18.22-.48.65-.45,1.08.04.91-.23,1.74-.53,2.62-.08.24-.16.48-.23.72l-.35,1.17c-.18.6-.12,1.08.17,1.56.09.14.14.35.18.6.03.14.06.28.1.42l.08.28h2.59l-.29-.55c-.08-.14-.15-.27-.22-.4-.13-.22-.24-.41-.31-.61l-.05-.14c-.1-.28-.23-.6-.19-.82.33-1.86.92-3.2,1.88-4.21.35-.37.75-.7,1.16-.96.78-.5,1.58-1.08,2.23-1.93.42.27.64.66.68,1.21.03.43-.05.89-.14,1.4-.12.72.07,1.24.61,1.66,1.09.85,2.27,1.94,2.85,3.53.06.16.16.3.24.41.23.31,1.07,1.42,1.07,1.42h2.56l-.73-1.18c-.25-.41-.46-.76-.7-1.1-.79-1.13-1.64-2.34-2.55-3.53-.27-.35-.29-.62-.11-1.11.28-.73.5-1.48.74-2.27.07-.23.14-.47.21-.71.3.03.59.06.89.09,1.1.12,2.23.24,3.39.24.68,0,1.31-.04,1.92-.12l-.27,1.03c-.34,1.32-.67,2.59-1.01,3.86-.16.58-.37,1.15-.63,1.69-.27.55-.22,1.01.15,1.5.2.26.36.56.55.9.09.16.19.34.3.52l.11.18h2.55l-.34-.57c-.11-.18-.2-.34-.29-.5-.18-.33-.36-.64-.59-.92-.36-.43-.39-.8-.09-1.41l.17-.36c.66-1.4,1.35-2.85,2.27-4.13.21-.29.37-.61.53-.91.09-.17.18-.34.27-.51.25-.43.36-.43.42-.43.09,0,.22.04.4.12.81.39,1.66.5,2.48.61.39.05.78.1,1.17.18.2.04.39.09.61.16h.05c-.03.2-.06.38-.1.57-.12.71-.23,1.37-.46,1.98-.07.17-.42.36-.7.51-.16.09-.32.17-.45.26-.02.01-.11.03-.17.04-.07.01-.14.03-.22.05l-.28.08v2.35l.42-.04c1.6-.17,2.65-.91,3.14-2.18.52-1.38.93-2.86,1.3-4.16.25-.91-.04-1.26-.81-1.71-1.02-.59-2.15-1.02-3.48-1.32.04-.25.08-.5.12-.75.13-.83.26-1.61.45-2.38.27-1.09.78-2.14,1.51-3.13.47.32.64.85.57,1.72-.12,1.49.82,1.81,1.64,1.93.1.01.2.02.3.02.77,0,1.3-.49,1.43-1.35.14-.88.27-1.77.39-2.66l.17-1.17s0-.09.01-.19l.02-.22c.12-1.11.24-1.81,1.18-2.12.24-.07.28-.3.3-.41l.03-.14.11-.45-.99-.03c-.38-.01-.76-.02-1.13-.05l-.38-.02c-.47-.03-.91-.05-1.33-.15-.52-.11-1.05-.17-1.55-.17-1.58,0-3.09.58-4.48,1.72-.5.41-.99.82-1.48,1.24-.42.36-.84.71-1.27,1.07-.26.21-.42.34-.52.34-.11,0-.33-.12-.57-.25-.27-.15-.54-.31-.81-.47l-.15-.09-.07-.68c-.06-.6-.11-1.19-.16-1.78-.08-1.04-.41-1.82-1.06-2.44-.08-.08-.14-.19-.22-.34.85-.37.94-1.19,1.01-1.86.04-.31.04-.63.05-.95,0-.15,0-.32-.05-.5-.23-.72-1.25-1.23-2.02-1.23-.06,0-.11,0-.17,0"/>
    </clipPath>
    <linearGradient id="linear-gradient" x1="-459.91" y1="590.4" x2="-458.91" y2="590.4" gradientTransform="translate(16009.58 20566.57) scale(34.81 -34.81)" gradientUnits="userSpaceOnUse">
      <stop offset="0" stop-color="#808184"/>
      <stop offset="1" stop-color="#060000"/>
    </linearGradient>
  </defs>
  <g class="cls-4">
    <rect class="cls-3" x=".63" y=".38" width="34.81" height="30.19"/>
  </g>
  <path class="cls-1" d="M18.29.75c.68,0,1.51.47,1.67.97.04.12.04.25.03.37,0,.31-.01.61-.05.92-.08.72-.13,1.48-1.19,1.68.2.34.3.64.51.84.63.61.88,1.35.94,2.2.07.88.16,1.75.24,2.66.37.22.75.45,1.13.66.35.2.56.3.75.3.22,0,.41-.14.76-.42.92-.76,1.82-1.54,2.74-2.3,1.28-1.05,2.68-1.64,4.24-1.64.47,0,.96.05,1.47.16.57.13,1.17.14,1.77.18.55.04,1.1.05,1.67.07-.04.17-.04.27-.07.28-1.31.43-1.34,1.57-1.46,2.66,0,.06,0,.13,0,.19-.19,1.27-.36,2.54-.56,3.82-.11.67-.47,1.03-1.07,1.03-.08,0-.16,0-.24-.02-.9-.12-1.41-.44-1.33-1.53.07-.82-.01-1.77-1.04-2.23-.84,1.08-1.45,2.24-1.77,3.53-.29,1.14-.43,2.32-.64,3.51,1.26.25,2.54.66,3.72,1.35.68.39.83.59.64,1.28-.39,1.39-.78,2.78-1.29,4.12-.46,1.22-1.47,1.8-2.83,1.95v-1.64c.2-.05.37-.06.5-.14.46-.3,1.14-.53,1.3-.95.35-.91.44-1.92.64-2.94-.42-.11-.72-.2-1.02-.27-1.19-.25-2.43-.22-3.57-.77-.22-.11-.4-.16-.56-.16-.3,0-.5.2-.74.61-.27.46-.47.96-.78,1.39-1.02,1.42-1.73,2.98-2.47,4.54-.32.67-.35,1.22.14,1.81.31.37.51.83.84,1.37h-1.67c-.33-.56-.56-1.04-.87-1.46-.29-.38-.33-.68-.12-1.11.27-.56.49-1.15.66-1.75.49-1.77.93-3.55,1.43-5.45-.83.15-1.63.21-2.42.21-1.57,0-3.08-.22-4.55-.35-.36,1.16-.64,2.23-1.03,3.25-.21.57-.21.99.16,1.47.87,1.15,1.71,2.33,2.54,3.52.34.48.63,1,1.06,1.69h-1.69c-.37-.5-.66-.88-.95-1.27-.07-.1-.15-.21-.19-.32-.57-1.57-1.71-2.7-2.97-3.7-.47-.37-.56-.77-.47-1.31.08-.49.17-1,.14-1.49-.05-.75-.42-1.34-1.17-1.66-.62.92-1.44,1.54-2.32,2.1-.45.28-.86.64-1.23,1.02-1.16,1.23-1.69,2.78-1.97,4.4-.06.36.12.78.26,1.15.12.33.33.64.55,1.06h-1.68c-.12-.42-.14-.83-.33-1.12-.26-.43-.26-.82-.13-1.26.12-.39.23-.78.35-1.17.35-1.14.84-2.23.78-3.47-.01-.27.18-.6.37-.83,1.06-1.3,1.54-2.76,1.45-4.45-.04-.77.02-1.59.24-2.32.22-.73.7-1.38,1.06-2.05-.14-.01-.26-.02-.37-.02-.68,0-.97.24-1.27.97-.42,1.03-.61,2.11-.57,3.22.04.96-.17,1.88-.55,2.75-.2.45-.45.91-.78,1.27-.27.3-.55.45-.84.45s-.6-.15-.91-.43c.83-.47.92-.7.7-1.65-.01-.06-.05-.12-.07-.18-.26-1.24-.34-2.47-.06-3.73.52-2.39,2.11-3.74,4.38-3.74.3,0,.62.02.95.07.1.02.2.02.31.02.2,0,.41-.03.58-.1,1-.43,2.01-.66,3.04-.66.6,0,1.21.08,1.84.24.58.15,1.17.3,1.82.3.22,0,.45-.02.68-.06-.12-1.22.28-2.34.67-3.47.08-.23.07-.5.06-.75-.02-1.09.19-2.12.74-3.07.21-.37.23-.74.15-1.18-.11-.58-.13-1.18-.1-1.78.03-.69.54-1.15,1.21-1.22.04,0,.09,0,.13,0M18.29,0c-.07,0-.14,0-.21.01-1.07.11-1.84.9-1.89,1.93-.03.74,0,1.38.11,1.96.07.35.02.51-.06.66-.59,1.02-.87,2.18-.84,3.46,0,.19,0,.39-.02.49l-.04.11c-.32.92-.64,1.87-.69,2.91-.51-.01-.99-.14-1.51-.27-.71-.18-1.39-.27-2.06-.27-1.11,0-2.23.24-3.33.72-.02,0-.11.04-.28.04-.07,0-.14,0-.2-.02-.36-.05-.72-.08-1.06-.08-2.61,0-4.52,1.62-5.11,4.33-.27,1.24-.25,2.57.06,4.05.02.08.04.15.07.23.09.38.08.49.07.52,0,0-.08.08-.42.28l-.9.51.76.7c.46.42.93.63,1.41.63.19,0,.37-.03.55-.1-.03.13-.05.27-.04.41.04.83-.23,1.63-.51,2.48-.08.24-.16.49-.24.73-.08.27-.16.54-.24.81l-.11.36c-.13.45-.25,1.12.21,1.87.06.09.1.29.14.48.03.14.06.29.1.45l.15.55h3.5l-.59-1.1c-.08-.15-.15-.28-.23-.41-.13-.22-.23-.39-.29-.56l-.05-.14c-.07-.19-.19-.51-.17-.62.31-1.78.88-3.06,1.78-4.01.33-.35.7-.66,1.09-.9.71-.46,1.45-.98,2.08-1.72.15.18.24.41.26.7.02.38-.05.81-.12,1.25v.06c-.1.54-.12,1.34.74,2.02,1.04.82,2.18,1.86,2.73,3.36.08.2.19.37.3.51.23.31.46.62.74.99l.21.28.23.3h3.42l-.71-1.15c-.14-.22-.26-.42-.37-.61-.25-.41-.47-.77-.71-1.12-.8-1.14-1.65-2.34-2.55-3.54-.17-.23-.2-.36-.06-.75.29-.75.51-1.5.75-2.3.04-.14.08-.27.12-.41.19.02.39.04.58.06,1.11.12,2.25.24,3.43.24.49,0,.96-.02,1.42-.06l-.13.51c-.34,1.32-.66,2.58-1.01,3.85-.15.56-.36,1.11-.61,1.63-.33.67-.27,1.29.2,1.9.18.24.34.52.52.85.09.17.19.34.3.53l.22.37h3.43l-.68-1.14c-.1-.17-.19-.34-.28-.49-.19-.35-.38-.67-.63-.98-.24-.28-.29-.48-.04-1.01l.17-.36c.69-1.45,1.33-2.82,2.23-4.07.23-.32.39-.64.56-.96.08-.17.17-.33.26-.49.07-.12.12-.19.15-.23.04.01.1.03.18.07.86.41,1.74.53,2.6.64.4.05.77.1,1.14.18.1.02.21.05.31.08-.01.07-.02.15-.04.22-.11.69-.22,1.33-.44,1.91-.05.07-.35.22-.53.32-.15.08-.3.16-.44.25-.02,0-.05.01-.08.02-.08.02-.16.03-.25.06l-.55.15v3.05l.83-.09c1.75-.19,2.91-1.01,3.45-2.42.53-1.4.94-2.88,1.31-4.19.31-1.12-.12-1.63-.98-2.13-.96-.56-2.02-.98-3.24-1.28.02-.13.04-.27.07-.4.13-.82.26-1.59.45-2.35.23-.92.62-1.79,1.19-2.64.13.23.19.56.14,1.1-.16,2.03,1.44,2.26,1.97,2.33.12.02.24.02.35.02.96,0,1.64-.62,1.81-1.66.14-.89.27-1.78.4-2.67l.17-1.16c0-.07.01-.13.01-.19l.02-.24c.12-1.13.23-1.57.93-1.8.29-.09.47-.32.54-.7,0-.03.01-.07.02-.12l.22-.9-.92-.04-.53-.02c-.38-.01-.75-.02-1.12-.05l-.38-.02c-.45-.03-.88-.05-1.27-.14-.55-.12-1.1-.18-1.63-.18-1.67,0-3.26.61-4.71,1.81-.5.41-.99.83-1.49,1.25-.42.35-.84.71-1.26,1.06-.14.12-.25.2-.31.24-.08-.04-.28-.15-.36-.19-.26-.15-.52-.3-.78-.46l-.05-.49c-.06-.6-.11-1.18-.16-1.77-.08-1.09-.45-1.95-1.11-2.62.69-.51.78-1.33.84-1.87v-.08c.05-.34.05-.67.06-.99,0-.17,0-.38-.07-.61-.28-.89-1.46-1.49-2.38-1.49h0Z"/>
</svg>