<?xml version="1.0" encoding="UTF-8"?>
<svg id="Layer_1" data-name="Layer 1" xmlns="http://www.w3.org/2000/svg" xmlns:xlink="http://www.w3.org/1999/xlink" viewBox="0 0 87.21 28.3">
  <defs>
    <style>
      .cls-1 {
        clip-path: url(#clippath-4);
      }

      .cls-2 {
        fill: url(#linear-gradient-2);
      }

      .cls-3 {
        stroke-linejoin: round;
      }

      .cls-3, .cls-4, .cls-5, .cls-6, .cls-7 {
        fill: none;
      }

      .cls-3, .cls-4, .cls-6, .cls-7 {
        stroke: #fff;
      }

      .cls-3, .cls-6 {
        stroke-width: .75px;
      }

      .cls-8 {
        fill: #fff;
      }

      .cls-4 {
        stroke-width: .5px;
      }

      .cls-4, .cls-6, .cls-7 {
        stroke-miterlimit: 10;
      }

      .cls-9 {
        fill: url(#linear-gradient-4);
      }

      .cls-10 {
        fill: url(#linear-gradient-3);
      }

      .cls-11 {
        clip-path: url(#clippath-1);
      }

      .cls-12 {
        fill: url(#linear-gradient-5);
      }

      .cls-13 {
        clip-path: url(#clippath-3);
      }

      .cls-14 {
        clip-path: url(#clippath-2);
      }

      .cls-15 {
        fill: url(#linear-gradient);
      }

      .cls-16 {
        clip-path: url(#clippath);
      }

      .cls-7 {
        stroke-width: .25px;
      }
    </style>
    <clipPath id="clippath">
      <path class="cls-5" d="M52.32,1.18c-.46,2-1.56,3.54-3.22,4.74-1.38.99-2.73,2.02-4.04,3.11-.95.79-1.73,1.75-2.22,2.91-1.16,2.7.54,5.46,2.24,6.95l-.17.49-.34.31-.16,1.81h.62l.95,6.44h4.15v-5.52h4.53v5.52h4.16l.95-6.44h.62l-.16-1.81-.34-.31-.27-.44c.87-.64,1.49-1.49,1.99-2.42,1.2-2.26.92-4.41-.74-6.35-1.34-1.56-2.99-2.75-4.67-3.89-1.4-.96-2.62-2.08-3.27-3.7-.2-.5-.34-1.01-.53-1.57-.05.1-.08.14-.09.19"/>
    </clipPath>
    <linearGradient id="linear-gradient" x1="-219.85" y1="548.02" x2="-218.85" y2="548.02" gradientTransform="translate(4415.74 10915.53) scale(19.89 -19.89)" gradientUnits="userSpaceOnUse">
      <stop offset="0" stop-color="#d0d2d3"/>
      <stop offset=".31" stop-color="#d0d2d3"/>
      <stop offset=".9" stop-color="#929497"/>
      <stop offset="1" stop-color="#929497"/>
    </linearGradient>
    <clipPath id="clippath-1">
      <path class="cls-5" d="M65.32,1.18c-.46,2-1.56,3.54-3.22,4.74-1.38.99-2.73,2.02-4.04,3.11-.95.79-1.73,1.75-2.22,2.91-1.16,2.7.54,5.46,2.24,6.95l-.17.49-.34.31-.16,1.81h.62l.95,6.44h4.16v-5.52h4.53v5.52h4.16l.95-6.44h.62l-.16-1.81-.34-.31-.27-.44c.87-.64,1.49-1.49,1.99-2.42,1.2-2.26.92-4.41-.74-6.35-1.34-1.56-2.99-2.75-4.67-3.89-1.4-.96-2.62-2.08-3.26-3.7-.2-.5-.34-1.01-.53-1.57-.05.1-.08.14-.09.19"/>
    </clipPath>
    <linearGradient id="linear-gradient-2" x1="-219.85" y1="548.02" x2="-218.85" y2="548.02" gradientTransform="translate(4428.75 10915.54) scale(19.89 -19.89)" gradientUnits="userSpaceOnUse">
      <stop offset="0" stop-color="#d0d2d3"/>
      <stop offset=".31" stop-color="#d0d2d3"/>
      <stop offset=".9" stop-color="#929497"/>
      <stop offset="1" stop-color="#929497"/>
    </linearGradient>
    <clipPath id="clippath-2">
      <polygon class="cls-5" points="72.83 11.25 72.83 15.21 69.42 13.22 67.64 16.48 70.98 18.41 67.64 20.27 69.42 23.53 72.83 21.54 72.83 25.43 76.43 25.43 76.43 21.54 79.85 23.53 81.63 20.27 78.36 18.41 81.63 16.48 79.85 13.22 76.43 15.21 76.43 11.25 72.83 11.25"/>
    </clipPath>
    <linearGradient id="linear-gradient-3" x1="-219.85" y1="548.02" x2="-218.85" y2="548.02" gradientTransform="translate(-2994.2 -7648.63) rotate(-180) scale(13.99 -13.99)" gradientUnits="userSpaceOnUse">
      <stop offset="0" stop-color="#231f20"/>
      <stop offset=".1" stop-color="#231f20"/>
      <stop offset="1" stop-color="#6d6e70"/>
    </linearGradient>
    <clipPath id="clippath-3">
      <path class="cls-5" d="M15.82,1.18c-.46,2-1.56,3.54-3.22,4.74-1.38,1-2.73,2.03-4.04,3.11-.95.79-1.73,1.75-2.22,2.91-1.16,2.7.54,5.46,2.24,6.95l-.17.49-.34.31-.16,1.81h.62l.95,6.44h4.16v-5.52h4.53v5.52h4.15l.95-6.44h.62l-.16-1.81-.34-.31-.27-.44c.87-.64,1.49-1.49,1.99-2.43,1.2-2.26.92-4.41-.74-6.35-1.34-1.56-2.99-2.75-4.67-3.9-1.4-.96-2.62-2.08-3.26-3.7-.2-.5-.34-1.01-.53-1.56-.05.1-.08.14-.09.19"/>
    </clipPath>
    <linearGradient id="linear-gradient-4" x1="-219.85" y1="548.02" x2="-218.85" y2="548.02" gradientTransform="translate(4379.23 10915.5) scale(19.89 -19.89)" gradientUnits="userSpaceOnUse">
      <stop offset="0" stop-color="#d0d2d3"/>
      <stop offset=".31" stop-color="#d0d2d3"/>
      <stop offset=".9" stop-color="#929497"/>
      <stop offset="1" stop-color="#929497"/>
    </linearGradient>
    <clipPath id="clippath-4">
      <polygon class="cls-5" points="23.33 11.25 23.33 15.21 19.92 13.22 18.14 16.48 21.48 18.41 18.14 20.26 19.92 23.53 23.33 21.53 23.33 25.42 26.93 25.42 26.93 21.53 30.34 23.53 32.12 20.26 28.86 18.41 32.12 16.48 30.34 13.22 26.93 15.21 26.93 11.25 23.33 11.25"/>
    </clipPath>
    <linearGradient id="linear-gradient-5" x1="-219.85" y1="548.02" x2="-218.85" y2="548.02" gradientTransform="translate(-3043.68 -7648.57) rotate(-180) scale(13.99 -13.99)" gradientUnits="userSpaceOnUse">
      <stop offset="0" stop-color="#231f20"/>
      <stop offset=".1" stop-color="#231f20"/>
      <stop offset="1" stop-color="#6d6e70"/>
    </linearGradient>
  </defs>
  <g class="cls-16">
    <rect class="cls-15" x="41.68" y=".99" width="21.13" height="26.93"/>
  </g>
  <path class="cls-6" d="M59.62,18.93c.87-.64,1.49-1.49,1.99-2.43,1.2-2.26.92-4.41-.74-6.35-1.34-1.56-2.99-2.75-4.67-3.9-1.4-.96-2.62-2.08-3.27-3.7-.2-.5-.34-1.01-.53-1.57-.05.1-.08.14-.09.19-.46,2-1.56,3.54-3.22,4.74-1.38,1-2.73,2.03-4.04,3.11-.95.79-1.73,1.75-2.22,2.91-1.16,2.7.54,5.46,2.24,6.95l-.17.49-.34.31-.16,1.81h.62l.95,6.44h4.15v-5.52h4.53v5.52h4.16l.95-6.44h.62l-.16-1.81-.34-.31-.27-.44Z"/>
  <g class="cls-11">
    <rect class="cls-2" x="54.68" y=".99" width="21.13" height="26.93"/>
  </g>
  <path class="cls-6" d="M72.63,18.93c.87-.64,1.49-1.49,1.99-2.43,1.2-2.26.92-4.41-.74-6.35-1.34-1.56-2.99-2.75-4.67-3.9-1.4-.96-2.62-2.08-3.27-3.7-.2-.5-.34-1.01-.53-1.57-.05.1-.08.14-.09.19-.46,2-1.56,3.54-3.22,4.74-1.38,1-2.73,2.03-4.04,3.11-.95.79-1.73,1.75-2.22,2.91-1.16,2.7.54,5.46,2.24,6.95l-.17.49-.34.31-.16,1.81h.62l.95,6.44h4.16v-5.52h4.53v5.52h4.16l.95-6.44h.62l-.16-1.81-.34-.31-.27-.44Z"/>
  <g class="cls-14">
    <rect class="cls-10" x="67.64" y="11.25" width="13.99" height="14.17"/>
  </g>
  <g>
    <polygon class="cls-3" points="67.64 16.48 69.42 13.22 72.83 15.21 72.83 11.25 76.43 11.25 76.43 15.21 79.85 13.22 81.63 16.48 78.36 18.41 81.63 20.26 79.85 23.53 76.43 21.54 76.43 25.42 72.83 25.42 72.83 21.54 69.42 23.53 67.64 20.26 70.98 18.41 67.64 16.48"/>
    <polygon class="cls-8" points="38.57 9.56 36.07 22.24 35.08 22.12 37.58 9.45 38.57 9.56"/>
    <polygon class="cls-4" points="38.57 9.56 36.07 22.24 35.08 22.12 37.58 9.45 38.57 9.56"/>
    <path class="cls-8" d="M2.68,24.46c-.75,0-1.36-.21-1.84-.64-.48-.42-.72-.95-.72-1.58v-9.97c0-.63.24-1.16.72-1.58.48-.42,1.09-.64,1.84-.64v1.02c-.45,0-.82.14-1.11.43-.26.25-.39.51-.39.77v9.97c0,.27.13.52.39.76.29.28.66.42,1.11.42v1.04Z"/>
    <path class="cls-7" d="M2.68,24.46c-.75,0-1.36-.21-1.84-.64-.48-.42-.72-.95-.72-1.58v-9.97c0-.63.24-1.16.72-1.58.48-.42,1.09-.64,1.84-.64v1.02c-.45,0-.82.14-1.11.43-.26.25-.39.51-.39.77v9.97c0,.27.13.52.39.76.29.28.66.42,1.11.42v1.04Z"/>
    <path class="cls-8" d="M87.08,22.25c0,.63-.24,1.16-.72,1.58-.48.42-1.09.64-1.84.64v-1.04c.45,0,.83-.14,1.12-.42.27-.24.4-.49.4-.76v-9.97c0-.27-.13-.52-.4-.77-.3-.29-.67-.43-1.12-.43v-1.02c.75,0,1.36.21,1.84.64.48.42.72.95.72,1.58v9.97Z"/>
    <path class="cls-7" d="M87.08,22.25c0,.63-.24,1.16-.72,1.58-.48.42-1.09.64-1.84.64v-1.04c.45,0,.83-.14,1.12-.42.27-.24.4-.49.4-.76v-9.97c0-.27-.13-.52-.4-.77-.3-.29-.67-.43-1.12-.43v-1.02c.75,0,1.36.21,1.84.64.48.42.72.95.72,1.58v9.97Z"/>
  </g>
  <g class="cls-13">
    <rect class="cls-9" x="5.18" y=".99" width="21.13" height="26.93"/>
  </g>
  <path class="cls-6" d="M23.12,18.93c.87-.64,1.49-1.49,1.99-2.43,1.2-2.26.92-4.41-.74-6.35-1.34-1.56-2.99-2.75-4.67-3.9-1.4-.96-2.62-2.08-3.26-3.7-.19-.5-.34-1.01-.53-1.56-.05.1-.08.14-.09.18-.46,2-1.56,3.54-3.22,4.74-1.38,1-2.73,2.03-4.04,3.11-.95.79-1.73,1.75-2.22,2.91-1.16,2.7.54,5.46,2.24,6.95l-.17.49-.34.31-.16,1.81h.62l.95,6.44h4.16v-5.52h4.53v5.52h4.15l.95-6.44h.62l-.16-1.81-.34-.31-.27-.44Z"/>
  <g class="cls-1">
    <rect class="cls-12" x="18.14" y="11.25" width="13.99" height="14.17"/>
  </g>
  <polygon class="cls-3" points="18.14 16.48 19.92 13.22 23.33 15.21 23.33 11.25 26.93 11.25 26.93 15.21 30.35 13.22 32.13 16.48 28.86 18.41 32.13 20.26 30.35 23.53 26.93 21.54 26.93 25.42 23.33 25.42 23.33 21.54 19.92 23.53 18.14 20.26 21.48 18.41 18.14 16.48"/>
</svg>