<?xml version="1.0" encoding="UTF-8"?>
<svg id="Layer_1" data-name="Layer 1" xmlns="http://www.w3.org/2000/svg" xmlns:xlink="http://www.w3.org/1999/xlink" viewBox="0 0 52.2 28.3">
  <defs>
    <style>
      .cls-1 {
        fill: url(#linear-gradient-2);
      }

      .cls-2 {
        stroke-linejoin: round;
      }

      .cls-2, .cls-3, .cls-4, .cls-5 {
        fill: none;
      }

      .cls-2, .cls-4 {
        stroke-width: .75px;
      }

      .cls-2, .cls-4, .cls-5 {
        stroke: #fff;
      }

      .cls-6 {
        fill: #fff;
      }

      .cls-4, .cls-5 {
        stroke-miterlimit: 10;
      }

      .cls-7 {
        fill: url(#linear-gradient-3);
      }

      .cls-8 {
        clip-path: url(#clippath-1);
      }

      .cls-9 {
        clip-path: url(#clippath-2);
      }

      .cls-10 {
        fill: url(#linear-gradient);
      }

      .cls-11 {
        clip-path: url(#clippath);
      }

      .cls-5 {
        stroke-width: .25px;
      }
    </style>
    <clipPath id="clippath">
      <path class="cls-3" d="M17.32,1.18c-.46,2-1.56,3.54-3.22,4.74-1.38.99-2.73,2.02-4.04,3.11-.95.79-1.73,1.75-2.22,2.91-1.15,2.7.54,5.46,2.24,6.95l-.17.49-.34.31-.16,1.81h.62l.95,6.44h4.15v-5.52h4.53v5.52h4.16l.95-6.44h.62l-.16-1.81-.34-.31-.27-.44c.87-.64,1.5-1.49,1.99-2.42,1.2-2.26.92-4.41-.74-6.35-1.34-1.56-2.99-2.75-4.67-3.89-1.4-.96-2.62-2.08-3.27-3.7-.19-.5-.34-1.01-.53-1.57-.05.1-.08.14-.09.19"/>
    </clipPath>
    <linearGradient id="linear-gradient" x1="-141.32" y1="548.02" x2="-140.32" y2="548.02" gradientTransform="translate(2818.47 10915.55) scale(19.89 -19.89)" gradientUnits="userSpaceOnUse">
      <stop offset="0" stop-color="#d0d2d3"/>
      <stop offset=".31" stop-color="#d0d2d3"/>
      <stop offset=".9" stop-color="#929497"/>
      <stop offset="1" stop-color="#929497"/>
    </linearGradient>
    <clipPath id="clippath-1">
      <path class="cls-3" d="M30.32,1.18c-.46,2-1.56,3.54-3.22,4.74-1.38.99-2.73,2.02-4.04,3.11-.95.79-1.73,1.75-2.22,2.91-1.16,2.7.54,5.46,2.24,6.95l-.17.49-.34.31-.16,1.81h.62l.95,6.44h4.16v-5.52h4.53v5.52h4.16l.95-6.44h.62l-.16-1.81-.34-.31-.27-.44c.87-.64,1.49-1.49,1.99-2.42,1.2-2.26.92-4.41-.74-6.35-1.34-1.56-2.99-2.75-4.67-3.89-1.4-.96-2.62-2.08-3.26-3.7-.2-.5-.34-1.01-.53-1.57-.05.1-.08.14-.09.19"/>
    </clipPath>
    <linearGradient id="linear-gradient-2" x1="-141.32" y1="548.02" x2="-140.32" y2="548.02" gradientTransform="translate(2831.48 10915.56) scale(19.89 -19.89)" gradientUnits="userSpaceOnUse">
      <stop offset="0" stop-color="#d0d2d3"/>
      <stop offset=".31" stop-color="#d0d2d3"/>
      <stop offset=".9" stop-color="#929497"/>
      <stop offset="1" stop-color="#929497"/>
    </linearGradient>
    <clipPath id="clippath-2">
      <polygon class="cls-3" points="37.83 11.25 37.83 15.21 34.42 13.22 32.64 16.48 35.98 18.41 32.64 20.27 34.42 23.53 37.83 21.54 37.83 25.43 41.43 25.43 41.43 21.54 44.85 23.53 46.63 20.27 43.36 18.41 46.63 16.48 44.85 13.22 41.43 15.21 41.43 11.25 37.83 11.25"/>
    </clipPath>
    <linearGradient id="linear-gradient-3" x1="-141.32" y1="548.02" x2="-140.32" y2="548.02" gradientTransform="translate(-1930.4 -7648.57) rotate(-180) scale(13.99 -13.99)" gradientUnits="userSpaceOnUse">
      <stop offset="0" stop-color="#231f20"/>
      <stop offset=".1" stop-color="#231f20"/>
      <stop offset="1" stop-color="#6d6e70"/>
    </linearGradient>
  </defs>
  <g class="cls-11">
    <rect class="cls-10" x="6.68" y=".99" width="21.13" height="26.93"/>
  </g>
  <path class="cls-4" d="M24.62,18.93c.87-.64,1.49-1.49,1.99-2.43,1.2-2.26.92-4.41-.74-6.35-1.34-1.56-2.99-2.75-4.67-3.9-1.4-.96-2.62-2.08-3.27-3.7-.2-.5-.34-1.01-.53-1.57-.05.1-.08.14-.09.19-.46,2-1.56,3.54-3.22,4.74-1.38,1-2.73,2.03-4.04,3.11-.95.79-1.73,1.75-2.22,2.91-1.16,2.7.54,5.46,2.24,6.95l-.17.49-.34.31-.16,1.81h.62l.95,6.44h4.16v-5.52h4.53v5.52h4.16l.95-6.44h.62l-.16-1.81-.34-.31-.27-.44Z"/>
  <g class="cls-8">
    <rect class="cls-1" x="19.68" y=".99" width="21.13" height="26.93"/>
  </g>
  <path class="cls-4" d="M37.62,18.93c.87-.64,1.49-1.49,1.99-2.43,1.2-2.26.92-4.41-.74-6.35-1.34-1.56-2.99-2.75-4.67-3.9-1.4-.96-2.62-2.08-3.27-3.7-.2-.5-.34-1.01-.53-1.57-.05.1-.08.14-.09.19-.46,2-1.56,3.54-3.22,4.74-1.38,1-2.73,2.03-4.04,3.11-.95.79-1.73,1.75-2.22,2.91-1.16,2.7.54,5.46,2.24,6.95l-.17.49-.34.31-.16,1.81h.62l.95,6.44h4.16v-5.52h4.53v5.52h4.16l.95-6.44h.62l-.16-1.81-.34-.31-.27-.44Z"/>
  <g class="cls-9">
    <rect class="cls-7" x="32.64" y="11.25" width="13.99" height="14.17"/>
  </g>
  <g>
    <polygon class="cls-2" points="32.64 16.48 34.42 13.22 37.83 15.21 37.83 11.25 41.43 11.25 41.43 15.21 44.85 13.22 46.63 16.48 43.36 18.41 46.63 20.26 44.85 23.53 41.43 21.54 41.43 25.42 37.83 25.42 37.83 21.54 34.42 23.53 32.64 20.26 35.98 18.41 32.64 16.48"/>
    <path class="cls-6" d="M2.68,24.46c-.75,0-1.36-.21-1.84-.64-.48-.42-.72-.95-.72-1.58v-9.97c0-.63.24-1.16.72-1.58.48-.42,1.09-.64,1.84-.64v1.02c-.45,0-.82.14-1.11.43-.26.25-.39.51-.39.77v9.97c0,.27.13.52.39.76.29.28.66.42,1.11.42v1.04Z"/>
    <path class="cls-5" d="M2.68,24.46c-.75,0-1.36-.21-1.84-.64-.48-.42-.72-.95-.72-1.58v-9.97c0-.63.24-1.16.72-1.58.48-.42,1.09-.64,1.84-.64v1.02c-.45,0-.82.14-1.11.43-.26.25-.39.51-.39.77v9.97c0,.27.13.52.39.76.29.28.66.42,1.11.42v1.04Z"/>
    <path class="cls-6" d="M52.08,22.25c0,.63-.24,1.16-.72,1.58-.48.42-1.09.64-1.84.64v-1.04c.45,0,.82-.14,1.12-.42.27-.24.4-.49.4-.76v-9.97c0-.27-.13-.52-.4-.77-.3-.29-.67-.43-1.12-.43v-1.02c.75,0,1.36.21,1.84.64.48.42.72.95.72,1.58v9.97Z"/>
    <path class="cls-5" d="M52.08,22.25c0,.63-.24,1.16-.72,1.58-.48.42-1.09.64-1.84.64v-1.04c.45,0,.82-.14,1.12-.42.27-.24.4-.49.4-.76v-9.97c0-.27-.13-.52-.4-.77-.3-.29-.67-.43-1.12-.43v-1.02c.75,0,1.36.21,1.84.64.48.42.72.95.72,1.58v9.97Z"/>
  </g>
</svg>