<?xml version="1.0" encoding="UTF-8"?>
<svg id="Layer_1" data-name="Layer 1" xmlns="http://www.w3.org/2000/svg" xmlns:xlink="http://www.w3.org/1999/xlink" viewBox="0 0 21.13 28.28">
  <defs>
    <style>
      .cls-1 {
        fill: url(#linear-gradient-2);
      }

      .cls-2, .cls-3 {
        fill: none;
      }

      .cls-3 {
        stroke: #fff;
        stroke-miterlimit: 10;
        stroke-width: .75px;
      }

      .cls-4 {
        fill: url(#linear-gradient-3);
      }

      .cls-5 {
        clip-path: url(#clippath-1);
      }

      .cls-6 {
        clip-path: url(#clippath-2);
      }

      .cls-7 {
        fill: url(#linear-gradient);
      }

      .cls-8 {
        clip-path: url(#clippath);
      }
    </style>
    <clipPath id="clippath">
      <path class="cls-2" d="M10.64,1.16c-.46,2-1.56,3.54-3.22,4.74-1.38.99-2.73,2.02-4.04,3.11-.95.79-1.73,2.75-2.22,3.91l18.03-2.78c-1.34-1.56-2.99-2.75-4.67-3.9-1.4-.96-2.62-2.07-3.26-3.7-.2-.49-.34-1.01-.53-1.56-.05.1-.08.14-.09.18"/>
    </clipPath>
    <linearGradient id="linear-gradient" x1="-404.3" y1="643.4" x2="-403.3" y2="643.4" gradientTransform="translate(7292.02 11609.51) scale(18.03 -18.03)" gradientUnits="userSpaceOnUse">
      <stop offset="0" stop-color="#9959a3"/>
      <stop offset="1" stop-color="#472979"/>
    </linearGradient>
    <clipPath id="clippath-1">
      <path class="cls-2" d="M1.16,12.91C0,15.61,1.7,17.37,3.4,18.86l-.17.49-.34.31-.16,1.81h.62l14.59-2.56c.87-.64,1.49-1.49,1.99-2.42,1.2-2.26.92-4.41-.74-6.35L1.16,12.91Z"/>
    </clipPath>
    <linearGradient id="linear-gradient-2" x1="-404.3" y1="643.4" x2="-403.3" y2="643.4" gradientTransform="translate(8043.08 12814.2) scale(19.89 -19.89)" gradientUnits="userSpaceOnUse">
      <stop offset="0" stop-color="#e4a641"/>
      <stop offset="1" stop-color="#bb5218"/>
    </linearGradient>
    <clipPath id="clippath-2">
      <polygon class="cls-2" points="3.35 21.47 4.3 27.9 8.46 27.9 8.46 22.39 12.99 22.39 12.99 27.9 17.14 27.9 18.09 21.47 18.72 21.47 18.55 19.66 18.22 19.35 17.94 18.91 3.35 21.47"/>
    </clipPath>
    <linearGradient id="linear-gradient-3" x1="-404.3" y1="643.4" x2="-403.3" y2="643.4" gradientTransform="translate(6214.72 9908.09) scale(15.36 -15.36)" gradientUnits="userSpaceOnUse">
      <stop offset="0" stop-color="#70be44"/>
      <stop offset=".78" stop-color="#0a6b37"/>
      <stop offset="1" stop-color="#0a6b37"/>
    </linearGradient>
  </defs>
  <g class="cls-8">
    <rect class="cls-7" x="1.16" y=".97" width="18.03" height="11.94"/>
  </g>
  <g class="cls-5">
    <rect class="cls-1" y="10.13" width="21.13" height="11.33"/>
  </g>
  <g class="cls-6">
    <rect class="cls-4" x="3.35" y="18.91" width="15.36" height="9"/>
  </g>
  <path class="cls-3" d="M17.94,18.91c.87-.64,1.49-1.49,1.99-2.42,1.2-2.26.92-4.41-.74-6.35-1.34-1.56-2.99-2.75-4.67-3.9-1.4-.96-2.62-2.08-3.26-3.7-.2-.49-.34-1.01-.53-1.56-.05.1-.08.14-.09.19-.46,2-1.56,3.54-3.22,4.74-1.38,1-2.73,2.03-4.04,3.11-.95.79-1.73,1.75-2.22,2.9C0,14.61,1.7,17.37,3.4,18.86l-.17.49-.34.31-.16,1.81h.62l.95,6.44h4.15v-5.52h4.53v5.52h4.15l.95-6.44h.62l-.16-1.81-.34-.31-.27-.44Z"/>
</svg>