<?xml version="1.0" encoding="UTF-8"?>
<svg id="Layer_1" data-name="Layer 1" xmlns="http://www.w3.org/2000/svg" xmlns:xlink="http://www.w3.org/1999/xlink" viewBox="0 0 21.13 28.28">
  <defs>
    <style>
      .cls-1, .cls-2 {
        fill: none;
      }

      .cls-2 {
        stroke: #fff;
        stroke-miterlimit: 10;
        stroke-width: .75px;
      }

      .cls-3 {
        fill: url(#linear-gradient);
      }

      .cls-4 {
        clip-path: url(#clippath);
      }
    </style>
    <clipPath id="clippath">
      <path class="cls-1" d="M10.64,1.16c-.46,2-1.56,3.54-3.22,4.74-1.38,1-2.73,2.02-4.04,3.11-.95.79-1.73,1.75-2.22,2.91-1.16,2.7.54,5.45,2.24,6.95l-.17.49-.34.31-.16,1.81h.62l.95,6.44h4.15v-5.51h4.53v5.51h4.15l.95-6.44h.62l-.16-1.81-.34-.31-.28-.44c.87-.64,1.49-1.49,1.99-2.43,1.2-2.26.92-4.41-.74-6.35-1.34-1.56-2.99-2.75-4.67-3.89-1.4-.96-2.62-2.08-3.26-3.7-.2-.5-.34-1.01-.53-1.57-.05.1-.08.14-.09.19"/>
    </clipPath>
    <linearGradient id="linear-gradient" x1="-278.32" y1="441.43" x2="-277.32" y2="441.43" gradientTransform="translate(5536.99 8795.31) scale(19.89 -19.89)" gradientUnits="userSpaceOnUse">
      <stop offset="0" stop-color="#e4a641"/>
      <stop offset="1" stop-color="#bb5218"/>
    </linearGradient>
  </defs>
  <g class="cls-4">
    <rect class="cls-3" y=".97" width="21.13" height="26.93"/>
  </g>
  <path class="cls-2" d="M17.94,18.91c.87-.64,1.49-1.49,1.99-2.43,1.2-2.26.92-4.41-.74-6.35-1.34-1.56-2.99-2.75-4.67-3.89-1.4-.96-2.62-2.08-3.26-3.7-.2-.5-.34-1.01-.53-1.56-.05.1-.08.14-.09.18-.46,2-1.56,3.54-3.22,4.74-1.38,1-2.73,2.02-4.04,3.11-.95.79-1.73,1.75-2.22,2.9C0,14.61,1.7,17.37,3.4,18.86l-.17.49-.34.31-.16,1.81h.62l.95,6.44h4.15v-5.52h4.53v5.52h4.15l.95-6.44h.62l-.16-1.81-.34-.31-.27-.44Z"/>
</svg>